<svg width="25.000000" height="25.000000" viewBox="0 0 25 25" fill="none" xmlns="http://www.w3.org/2000/svg" xmlns:xlink="http://www.w3.org/1999/xlink">
	<desc>
			Created with Pixso.
	</desc>
	<defs/>
	<path id="path" d="M12.5 0C12.09 0 11.68 0.02 11.27 0.06C10.86 0.1 10.46 0.16 10.06 0.24C9.65 0.32 9.26 0.41 8.87 0.53C8.47 0.65 8.09 0.79 7.71 0.95C7.33 1.1 6.96 1.28 6.6 1.47C6.24 1.66 5.89 1.87 5.55 2.1C5.21 2.33 4.88 2.57 4.57 2.83C4.25 3.09 3.95 3.37 3.66 3.66C3.37 3.95 3.09 4.25 2.83 4.57C2.57 4.88 2.33 5.21 2.1 5.55C1.87 5.89 1.66 6.24 1.47 6.6C1.28 6.96 1.1 7.33 0.95 7.71C0.79 8.09 0.65 8.47 0.53 8.87C0.41 9.26 0.32 9.65 0.24 10.06C0.16 10.46 0.1 10.86 0.06 11.27C0.02 11.68 0 12.09 0 12.5C0 12.9 0.02 13.31 0.06 13.72C0.1 14.13 0.16 14.53 0.24 14.93C0.32 15.34 0.41 15.73 0.53 16.12C0.65 16.52 0.79 16.9 0.95 17.28C1.1 17.66 1.28 18.03 1.47 18.39C1.66 18.75 1.87 19.1 2.1 19.44C2.33 19.78 2.57 20.11 2.83 20.42C3.09 20.74 3.37 21.04 3.66 21.33C3.95 21.62 4.25 21.9 4.57 22.16C4.88 22.42 5.21 22.66 5.55 22.89C5.89 23.12 6.24 23.33 6.6 23.52C6.96 23.71 7.33 23.89 7.71 24.04C8.09 24.2 8.47 24.34 8.87 24.46C9.26 24.58 9.65 24.67 10.06 24.75C10.46 24.83 10.86 24.89 11.27 24.93C11.68 24.98 12.09 25 12.5 25C12.9 25 13.31 24.98 13.72 24.93C14.13 24.89 14.53 24.83 14.93 24.75C15.34 24.67 15.73 24.58 16.12 24.46C16.52 24.34 16.9 24.2 17.28 24.04C17.66 23.89 18.03 23.71 18.39 23.52C18.75 23.33 19.1 23.12 19.44 22.89C19.78 22.66 20.11 22.42 20.42 22.16C20.74 21.9 21.04 21.62 21.33 21.33C21.62 21.04 21.9 20.74 22.16 20.42C22.42 20.11 22.66 19.78 22.89 19.44C23.12 19.1 23.33 18.75 23.52 18.39C23.71 18.03 23.89 17.66 24.04 17.28C24.2 16.9 24.34 16.52 24.46 16.12C24.58 15.73 24.67 15.34 24.75 14.93C24.83 14.53 24.89 14.13 24.93 13.72C24.98 13.31 25 12.9 25 12.5C24.99 12.09 24.97 11.68 24.93 11.27C24.89 10.86 24.83 10.46 24.75 10.06C24.67 9.66 24.57 9.26 24.45 8.87C24.33 8.48 24.2 8.09 24.04 7.71C23.88 7.34 23.71 6.97 23.52 6.61C23.32 6.24 23.11 5.89 22.88 5.55C22.66 5.21 22.41 4.89 22.15 4.57C21.89 4.25 21.62 3.95 21.33 3.66C21.04 3.37 20.74 3.1 20.42 2.84C20.11 2.58 19.78 2.33 19.44 2.11C19.1 1.88 18.75 1.67 18.38 1.47C18.02 1.28 17.65 1.11 17.28 0.95C16.9 0.79 16.51 0.66 16.12 0.54C15.73 0.42 15.33 0.32 14.93 0.24C14.53 0.16 14.13 0.1 13.72 0.06C13.31 0.02 12.9 0 12.5 0ZM12.5 23.07C12.15 23.07 11.8 23.05 11.46 23.02C11.11 22.99 10.77 22.94 10.43 22.87C10.09 22.8 9.76 22.72 9.42 22.62C9.09 22.52 8.77 22.4 8.45 22.27C8.13 22.13 7.81 21.99 7.51 21.82C7.2 21.66 6.91 21.48 6.62 21.29C6.33 21.1 6.05 20.89 5.79 20.67C5.52 20.45 5.26 20.22 5.02 19.97C4.77 19.73 4.54 19.47 4.32 19.2C4.1 18.94 3.89 18.66 3.7 18.37C3.51 18.08 3.33 17.79 3.17 17.48C3 17.18 2.86 16.86 2.72 16.54C2.59 16.22 2.47 15.9 2.37 15.57C2.27 15.23 2.19 14.9 2.12 14.56C2.05 14.22 2 13.88 1.97 13.53C1.93 13.19 1.92 12.84 1.92 12.5C1.92 12.15 1.93 11.8 1.97 11.46C2 11.11 2.05 10.77 2.12 10.43C2.19 10.09 2.27 9.76 2.37 9.42C2.47 9.09 2.59 8.77 2.72 8.45C2.86 8.13 3 7.81 3.17 7.51C3.33 7.2 3.51 6.91 3.7 6.62C3.89 6.33 4.1 6.05 4.32 5.79C4.54 5.52 4.77 5.26 5.02 5.02C5.26 4.77 5.52 4.54 5.79 4.32C6.05 4.1 6.33 3.89 6.62 3.7C6.91 3.51 7.2 3.33 7.51 3.17C7.81 3 8.13 2.86 8.45 2.72C8.77 2.59 9.09 2.47 9.42 2.37C9.76 2.27 10.09 2.19 10.43 2.12C10.77 2.05 11.11 2 11.46 1.97C11.8 1.94 12.15 1.92 12.5 1.92C12.84 1.92 13.19 1.94 13.53 1.97C13.88 2 14.22 2.05 14.56 2.12C14.9 2.19 15.23 2.27 15.57 2.37C15.9 2.47 16.22 2.59 16.54 2.72C16.86 2.86 17.18 3 17.48 3.17C17.79 3.33 18.08 3.51 18.37 3.7C18.66 3.89 18.94 4.1 19.2 4.32C19.47 4.54 19.73 4.77 19.97 5.02C20.22 5.26 20.45 5.52 20.67 5.79C20.89 6.05 21.1 6.33 21.29 6.62C21.48 6.91 21.66 7.2 21.82 7.51C21.99 7.81 22.13 8.13 22.27 8.45C22.4 8.77 22.52 9.09 22.62 9.42C22.72 9.76 22.8 10.09 22.87 10.43C22.94 10.77 22.99 11.11 23.02 11.46C23.06 11.8 23.07 12.15 23.07 12.5C23.07 12.84 23.05 13.19 23.02 13.53C22.99 13.88 22.93 14.22 22.87 14.56C22.8 14.9 22.71 15.23 22.61 15.56C22.51 15.9 22.4 16.22 22.26 16.54C22.13 16.86 21.98 17.17 21.82 17.48C21.66 17.78 21.48 18.08 21.29 18.37C21.09 18.66 20.89 18.93 20.67 19.2C20.45 19.47 20.22 19.73 19.97 19.97C19.73 20.22 19.47 20.45 19.2 20.67C18.93 20.89 18.66 21.09 18.37 21.29C18.08 21.48 17.78 21.66 17.48 21.82C17.17 21.98 16.86 22.13 16.54 22.26C16.22 22.4 15.9 22.51 15.56 22.61C15.23 22.71 14.9 22.8 14.56 22.87C14.22 22.93 13.88 22.99 13.53 23.02C13.19 23.05 12.84 23.07 12.5 23.07ZM17.98 9.89C18.07 9.98 18.14 10.09 18.19 10.2C18.24 10.32 18.27 10.44 18.27 10.57C18.27 10.7 18.24 10.82 18.19 10.94C18.14 11.06 18.07 11.16 17.98 11.25L13.18 16.06C13.09 16.15 12.98 16.22 12.86 16.27C12.75 16.32 12.62 16.34 12.5 16.34C12.37 16.34 12.24 16.32 12.13 16.27C12.01 16.22 11.9 16.15 11.81 16.06L7.01 11.25C6.92 11.16 6.85 11.06 6.8 10.94C6.75 10.82 6.73 10.7 6.73 10.57C6.73 10.44 6.75 10.32 6.8 10.2C6.85 10.09 6.92 9.98 7.01 9.89C7.1 9.8 7.2 9.73 7.32 9.68C7.44 9.63 7.56 9.61 7.69 9.61C7.81 9.61 7.94 9.63 8.06 9.68C8.17 9.73 8.28 9.8 8.37 9.89L12.5 14.02L16.62 9.89C16.71 9.8 16.82 9.73 16.93 9.68C17.05 9.63 17.18 9.61 17.3 9.61C17.43 9.61 17.55 9.63 17.67 9.68C17.79 9.73 17.89 9.8 17.98 9.89Z" fill="#34495E" fill-opacity="1.000000" fill-rule="nonzero"/>
</svg>
