<svg width="15.000000" height="15.000000" viewBox="0 0 15 15" fill="none" xmlns="http://www.w3.org/2000/svg" xmlns:xlink="http://www.w3.org/1999/xlink">
	<desc>
			Created with Pixso.
	</desc>
	<defs/>
	<path id="path" d="M7.5 0C7.25 0 7 0.01 6.76 0.03C6.52 0.06 6.27 0.09 6.03 0.14C5.79 0.19 5.55 0.25 5.32 0.32C5.08 0.39 4.85 0.47 4.62 0.57C4.4 0.66 4.18 0.76 3.96 0.88C3.74 1 3.53 1.12 3.33 1.26C3.12 1.4 2.93 1.54 2.74 1.7C2.55 1.85 2.37 2.02 2.19 2.19C2.02 2.37 1.85 2.55 1.7 2.74C1.54 2.93 1.4 3.12 1.26 3.33C1.12 3.53 1 3.74 0.88 3.96C0.76 4.18 0.66 4.4 0.57 4.62C0.47 4.85 0.39 5.08 0.32 5.32C0.25 5.55 0.19 5.79 0.14 6.03C0.09 6.27 0.06 6.52 0.03 6.76C0.01 7 0 7.25 0 7.5C0 7.74 0.01 7.99 0.03 8.23C0.06 8.47 0.09 8.72 0.14 8.96C0.19 9.2 0.25 9.44 0.32 9.67C0.39 9.91 0.47 10.14 0.57 10.37C0.66 10.59 0.76 10.81 0.88 11.03C1 11.25 1.12 11.46 1.26 11.66C1.4 11.87 1.54 12.06 1.7 12.25C1.85 12.44 2.02 12.62 2.19 12.8C2.37 12.97 2.55 13.14 2.74 13.29C2.93 13.45 3.12 13.59 3.33 13.73C3.53 13.87 3.74 13.99 3.96 14.11C4.18 14.23 4.4 14.33 4.62 14.42C4.85 14.52 5.08 14.6 5.32 14.67C5.55 14.74 5.79 14.8 6.03 14.85C6.27 14.9 6.52 14.93 6.76 14.96C7 14.98 7.25 15 7.5 15C7.74 15 7.99 14.98 8.23 14.96C8.47 14.93 8.72 14.9 8.96 14.85C9.2 14.8 9.44 14.74 9.67 14.67C9.91 14.6 10.14 14.52 10.37 14.42C10.59 14.33 10.81 14.23 11.03 14.11C11.25 13.99 11.46 13.87 11.66 13.73C11.87 13.59 12.06 13.45 12.25 13.29C12.44 13.14 12.62 12.97 12.8 12.8C12.97 12.62 13.14 12.44 13.29 12.25C13.45 12.06 13.59 11.87 13.73 11.66C13.87 11.46 13.99 11.25 14.11 11.03C14.23 10.81 14.33 10.59 14.42 10.37C14.52 10.14 14.6 9.91 14.67 9.67C14.74 9.44 14.8 9.2 14.85 8.96C14.9 8.72 14.93 8.47 14.96 8.23C14.98 7.99 15 7.74 15 7.5C14.99 7.25 14.98 7 14.96 6.76C14.93 6.52 14.9 6.27 14.85 6.03C14.8 5.79 14.74 5.55 14.67 5.32C14.6 5.08 14.52 4.85 14.42 4.63C14.33 4.4 14.22 4.18 14.11 3.96C13.99 3.74 13.87 3.53 13.73 3.33C13.59 3.13 13.45 2.93 13.29 2.74C13.13 2.55 12.97 2.37 12.8 2.19C12.62 2.02 12.44 1.86 12.25 1.7C12.06 1.54 11.86 1.4 11.66 1.26C11.46 1.12 11.25 1 11.03 0.88C10.81 0.77 10.59 0.66 10.36 0.57C10.14 0.47 9.91 0.39 9.67 0.32C9.44 0.25 9.2 0.19 8.96 0.14C8.72 0.09 8.47 0.06 8.23 0.03C7.99 0.01 7.74 0 7.5 0ZM7.5 13.84C7.29 13.84 7.08 13.83 6.87 13.81C6.67 13.79 6.46 13.76 6.26 13.72C6.05 13.68 5.85 13.63 5.65 13.57C5.45 13.51 5.26 13.44 5.07 13.36C4.87 13.28 4.69 13.19 4.5 13.09C4.32 12.99 4.14 12.89 3.97 12.77C3.8 12.66 3.63 12.53 3.47 12.4C3.31 12.27 3.15 12.13 3.01 11.98C2.86 11.84 2.72 11.68 2.59 11.52C2.46 11.36 2.33 11.19 2.22 11.02C2.1 10.85 2 10.67 1.9 10.49C1.8 10.3 1.71 10.12 1.63 9.92C1.55 9.73 1.48 9.54 1.42 9.34C1.36 9.14 1.31 8.94 1.27 8.73C1.23 8.53 1.2 8.32 1.18 8.12C1.16 7.91 1.15 7.7 1.15 7.5C1.15 7.29 1.16 7.08 1.18 6.87C1.2 6.67 1.23 6.46 1.27 6.26C1.31 6.05 1.36 5.85 1.42 5.65C1.48 5.45 1.55 5.26 1.63 5.07C1.71 4.87 1.8 4.69 1.9 4.5C2 4.32 2.1 4.14 2.22 3.97C2.33 3.8 2.46 3.63 2.59 3.47C2.72 3.31 2.86 3.15 3.01 3.01C3.15 2.86 3.31 2.72 3.47 2.59C3.63 2.46 3.8 2.33 3.97 2.22C4.14 2.1 4.32 2 4.5 1.9C4.69 1.8 4.87 1.71 5.07 1.63C5.26 1.55 5.45 1.48 5.65 1.42C5.85 1.36 6.05 1.31 6.26 1.27C6.46 1.23 6.67 1.2 6.87 1.18C7.08 1.16 7.29 1.15 7.5 1.15C7.7 1.15 7.91 1.16 8.12 1.18C8.32 1.2 8.53 1.23 8.73 1.27C8.94 1.31 9.14 1.36 9.34 1.42C9.54 1.48 9.73 1.55 9.92 1.63C10.12 1.71 10.3 1.8 10.49 1.9C10.67 2 10.85 2.1 11.02 2.22C11.19 2.33 11.36 2.46 11.52 2.59C11.68 2.72 11.84 2.86 11.98 3.01C12.13 3.15 12.27 3.31 12.4 3.47C12.53 3.63 12.66 3.8 12.77 3.97C12.89 4.14 12.99 4.32 13.09 4.5C13.19 4.69 13.28 4.87 13.36 5.07C13.44 5.26 13.51 5.45 13.57 5.65C13.63 5.85 13.68 6.05 13.72 6.26C13.76 6.46 13.79 6.67 13.81 6.87C13.83 7.08 13.84 7.29 13.84 7.5C13.84 7.7 13.83 7.91 13.81 8.12C13.79 8.32 13.76 8.53 13.72 8.73C13.68 8.94 13.63 9.14 13.57 9.34C13.51 9.54 13.44 9.73 13.36 9.92C13.28 10.11 13.19 10.3 13.09 10.49C12.99 10.67 12.88 10.85 12.77 11.02C12.65 11.19 12.53 11.36 12.4 11.52C12.27 11.68 12.13 11.83 11.98 11.98C11.83 12.13 11.68 12.27 11.52 12.4C11.36 12.53 11.19 12.65 11.02 12.77C10.85 12.88 10.67 12.99 10.49 13.09C10.3 13.19 10.11 13.28 9.92 13.36C9.73 13.44 9.54 13.51 9.34 13.57C9.14 13.63 8.94 13.68 8.73 13.72C8.53 13.76 8.32 13.79 8.12 13.81C7.91 13.83 7.7 13.84 7.5 13.84ZM10.79 5.93C10.84 5.99 10.88 6.05 10.91 6.12C10.94 6.19 10.96 6.26 10.96 6.34C10.96 6.42 10.94 6.49 10.91 6.56C10.88 6.63 10.84 6.7 10.79 6.75L7.9 9.63C7.85 9.69 7.79 9.73 7.72 9.76C7.65 9.79 7.57 9.8 7.5 9.8C7.42 9.8 7.34 9.79 7.27 9.76C7.2 9.73 7.14 9.69 7.09 9.63L4.2 6.75C4.15 6.7 4.11 6.63 4.08 6.56C4.05 6.49 4.03 6.42 4.03 6.34C4.03 6.26 4.05 6.19 4.08 6.12C4.11 6.05 4.15 5.99 4.2 5.93C4.26 5.88 4.32 5.84 4.39 5.81C4.46 5.78 4.53 5.76 4.61 5.76C4.69 5.76 4.76 5.78 4.83 5.81C4.9 5.84 4.96 5.88 5.02 5.93L7.5 8.41L9.97 5.93C10.03 5.88 10.09 5.84 10.16 5.81C10.23 5.78 10.3 5.76 10.38 5.76C10.46 5.76 10.53 5.78 10.6 5.81C10.67 5.84 10.73 5.88 10.79 5.93Z" fill="#34495E" fill-opacity="1.000000" fill-rule="nonzero"/>
</svg>
