<svg width="20.000000" height="20.000000" viewBox="0 0 20 20" fill="none" xmlns="http://www.w3.org/2000/svg" xmlns:xlink="http://www.w3.org/1999/xlink">
	<desc>
			Created with Pixso.
	</desc>
	<defs>
		<clipPath id="clip13_961">
			<rect id="Торт на день рождения" width="20.000000" height="20.000000" fill="white" fill-opacity="0"/>
		</clipPath>
	</defs>
	<g clip-path="url(#clip13_961)">
		<path id="path" d="M3.33 16.66L16.66 16.66L16.66 10L3.33 10L3.33 16.66Z" fill="#000000" fill-opacity="0" fill-rule="nonzero"/>
		<path id="path" d="M3.33 10L3.33 16.66L16.66 16.66L16.66 10L3.33 10ZM18.33 15.91L18.31 15.93L18.31 17.39L18.33 17.41C18.75 17.41 19.08 17.08 19.08 16.66C19.08 16.24 18.75 15.91 18.33 15.91Z" fill="#000000" fill-opacity="0" fill-rule="evenodd"/>
		<path id="path" d="M18.33 16.66L16.66 16.66L3.33 16.66L1.66 16.66L16.66 16.66M16.66 16.66L16.66 10L3.33 10L3.33 16.66" stroke="#808080" stroke-opacity="1.000000" stroke-width="1.500000" stroke-linejoin="round" stroke-linecap="round"/>
		<path id="path" d="M16.97 13.5L17 13.49C17.37 13.68 17.52 14.12 17.33 14.5C17.14 14.87 16.7 15.02 16.33 14.83L16.32 14.81L16.97 13.5ZM3.67 14.81L3.66 14.83C3.29 15.02 2.85 14.87 2.66 14.5C2.47 14.12 2.62 13.68 2.99 13.49L3.02 13.5L3.67 14.81Z" fill="#000000" fill-opacity="0" fill-rule="nonzero"/>
		<path id="path" d="M16.66 14.16L15 13.33L13.33 14.16L11.66 13.33L10 14.16L8.33 13.33L6.66 14.16L5 13.33L3.33 14.16" stroke="#808080" stroke-opacity="1.000000" stroke-width="1.500000" stroke-linejoin="round" stroke-linecap="round"/>
		<path id="path" d="M12.6 6.27L12.58 6.25C12.58 5.83 12.91 5.5 13.33 5.5C13.75 5.5 14.08 5.83 14.08 6.25L14.06 6.27L12.6 6.27ZM14.06 9.97L14.08 10C14.08 10.42 13.75 10.75 13.33 10.75C12.91 10.75 12.58 10.42 12.58 10L12.6 9.97L14.06 9.97Z" fill="#000000" fill-opacity="0" fill-rule="nonzero"/>
		<path id="path" d="M13.33 6.25L13.33 10" stroke="#808080" stroke-opacity="1.000000" stroke-width="1.500000" stroke-linejoin="round" stroke-linecap="round"/>
		<path id="path" d="M9.27 6.27L9.25 6.25C9.25 5.83 9.58 5.5 10 5.5C10.41 5.5 10.75 5.83 10.75 6.25L10.73 6.27L9.27 6.27ZM10.73 9.97L10.75 10C10.75 10.42 10.41 10.75 10 10.75C9.58 10.75 9.25 10.42 9.25 10L9.27 9.97L10.73 9.97Z" fill="#000000" fill-opacity="0" fill-rule="nonzero"/>
		<path id="path" d="M10 6.25L10 10" stroke="#808080" stroke-opacity="1.000000" stroke-width="1.500000" stroke-linejoin="round" stroke-linecap="round"/>
		<path id="path" d="M5.93 6.27L5.91 6.25C5.91 5.83 6.24 5.5 6.66 5.5C7.08 5.5 7.41 5.83 7.41 6.25L7.39 6.27L5.93 6.27ZM7.39 9.97L7.41 10C7.41 10.42 7.08 10.75 6.66 10.75C6.24 10.75 5.91 10.42 5.91 10L5.93 9.97L7.39 9.97Z" fill="#000000" fill-opacity="0" fill-rule="nonzero"/>
		<path id="path" d="M6.66 6.25L6.66 10" stroke="#808080" stroke-opacity="1.000000" stroke-width="1.500000" stroke-linejoin="round" stroke-linecap="round"/>
		<path id="path" d="M12.6 3.35L12.58 3.33C12.58 2.91 12.91 2.58 13.33 2.58C13.75 2.58 14.08 2.91 14.08 3.33L14.06 3.35L12.6 3.35ZM14.06 4.14L14.08 4.16C14.08 4.58 13.75 4.91 13.33 4.91C12.91 4.91 12.58 4.58 12.58 4.16L12.6 4.14L14.06 4.14Z" fill="#000000" fill-opacity="0" fill-rule="nonzero"/>
		<path id="path" d="M13.33 3.33L13.33 4.16" stroke="#808080" stroke-opacity="1.000000" stroke-width="1.500000" stroke-linejoin="round" stroke-linecap="round"/>
		<path id="path" d="M9.27 3.35L9.25 3.33C9.25 2.91 9.58 2.58 10 2.58C10.41 2.58 10.75 2.91 10.75 3.33L10.73 3.35L9.27 3.35ZM10.73 4.14L10.75 4.16C10.75 4.58 10.41 4.91 10 4.91C9.58 4.91 9.25 4.58 9.25 4.16L9.27 4.14L10.73 4.14Z" fill="#000000" fill-opacity="0" fill-rule="nonzero"/>
		<path id="path" d="M10 3.33L10 4.16" stroke="#808080" stroke-opacity="1.000000" stroke-width="1.500000" stroke-linejoin="round" stroke-linecap="round"/>
		<path id="path" d="M5.93 3.35L5.91 3.33C5.91 2.91 6.24 2.58 6.66 2.58C7.08 2.58 7.41 2.91 7.41 3.33L7.39 3.35L5.93 3.35ZM7.39 4.14L7.41 4.16C7.41 4.58 7.08 4.91 6.66 4.91C6.24 4.91 5.91 4.58 5.91 4.16L5.93 4.14L7.39 4.14Z" fill="#000000" fill-opacity="0" fill-rule="nonzero"/>
		<path id="path" d="M6.66 3.33L6.66 4.16" stroke="#808080" stroke-opacity="1.000000" stroke-width="1.500000" stroke-linejoin="round" stroke-linecap="round"/>
		<path id="path" d="M2.6 10.02L2.58 10C2.58 9.58 2.91 9.25 3.33 9.25C3.75 9.25 4.08 9.58 4.08 10L4.06 10.02L2.6 10.02ZM4.06 16.64L4.08 16.66C4.08 17.08 3.75 17.41 3.33 17.41C2.91 17.41 2.58 17.08 2.58 16.66L2.6 16.64L4.06 16.64Z" fill="#000000" fill-opacity="0" fill-rule="nonzero"/>
		<path id="path" d="M3.33 10L3.33 16.66" stroke="#808080" stroke-opacity="1.000000" stroke-width="1.500000" stroke-linejoin="round" stroke-linecap="round"/>
		<path id="path" d="M15.93 10.02L15.91 10C15.91 9.58 16.24 9.25 16.66 9.25C17.08 9.25 17.41 9.58 17.41 10L17.39 10.02L15.93 10.02ZM17.39 16.64L17.41 16.66C17.41 17.08 17.08 17.41 16.66 17.41C16.24 17.41 15.91 17.08 15.91 16.66L15.93 16.64L17.39 16.64Z" fill="#000000" fill-opacity="0" fill-rule="nonzero"/>
		<path id="path" d="M16.66 10L16.66 16.66" stroke="#808080" stroke-opacity="1.000000" stroke-width="1.500000" stroke-linejoin="round" stroke-linecap="round"/>
	</g>
</svg>
