<svg width="10.000000" height="19.000000" viewBox="0 0 10 19" fill="none" xmlns="http://www.w3.org/2000/svg" xmlns:xlink="http://www.w3.org/1999/xlink">
	<desc>
			Created with Pixso.
	</desc>
	<defs/>
	<path id="B" d="M8.74 9.94Q8.04 9.33 6.94 9.12Q7.53 8.98 7.99 8.65Q8.2 8.5 8.39 8.32Q8.53 8.17 8.64 8Q8.97 7.48 8.97 6.74Q8.97 5.89 8.58 5.3Q8.27 4.86 7.74 4.57Q6.51 3.91 4.17 3.91L1.03 3.91L1.03 15L4.6 15Q6.89 15 8.16 14.27Q8.57 14.04 8.84 13.7Q9.44 12.98 9.44 11.76Q9.44 10.71 8.91 10.12Q8.83 10.02 8.74 9.94ZM3.66 8.34L3.66 5.76L4.43 5.76Q5.4 5.76 5.85 6.05Q5.97 6.12 6.05 6.22Q6.3 6.5 6.3 7Q6.3 7.53 6.04 7.85Q5.64 8.34 4.64 8.34L3.66 8.34ZM6.19 12.78Q5.66 13.09 4.62 13.09L3.66 13.09L3.66 10.08L4.81 10.08Q5.98 10.08 6.44 10.66Q6.73 11.02 6.73 11.62Q6.73 12.29 6.39 12.63Q6.31 12.72 6.19 12.78Z" fill="#34495E" fill-opacity="1.000000" fill-rule="evenodd"/>
</svg>
