<svg width="33.969238" height="34.000000" viewBox="0 0 33.9692 34" fill="none" xmlns="http://www.w3.org/2000/svg" xmlns:xlink="http://www.w3.org/1999/xlink">
	<desc>
			Created with Pixso.
	</desc>
	<defs/>
	<ellipse id="Эллипс 3" cx="16.984619" cy="17.000000" rx="16.984587" ry="17.000000" fill="#FFFFFF" fill-opacity="1.000000"/>
	<ellipse id="Эллипс 3" cx="16.984619" cy="17.000000" rx="16.484587" ry="16.500000" stroke="#C4C4C4" stroke-opacity="1.000000" stroke-width="1.000000"/>
	<path id="path" d="M26.95 18.53L25.88 9.88C25.87 9.76 25.84 9.63 25.8 9.5C25.76 9.38 25.71 9.26 25.65 9.14C25.59 9.03 25.52 8.92 25.44 8.82C25.36 8.72 25.27 8.62 25.17 8.53C25.08 8.45 24.97 8.37 24.86 8.3C24.75 8.24 24.64 8.18 24.52 8.13C24.39 8.09 24.27 8.05 24.14 8.03C24.02 8.01 23.89 8 23.76 8L8.42 8C8.23 8 8.04 8.03 7.87 8.1C7.69 8.18 7.54 8.28 7.41 8.42C7.27 8.55 7.17 8.71 7.1 8.88C7.02 9.06 6.99 9.24 6.99 9.43L6.99 17.36C6.99 17.55 7.02 17.73 7.1 17.91C7.17 18.08 7.27 18.24 7.41 18.37C7.54 18.51 7.69 18.61 7.87 18.69C8.04 18.76 8.23 18.79 8.42 18.79L12.26 18.79L15.63 25.6C15.69 25.72 15.78 25.82 15.89 25.89C16.01 25.96 16.13 26 16.27 26C16.5 26 16.73 25.97 16.96 25.93C17.19 25.88 17.41 25.81 17.63 25.72C17.85 25.63 18.05 25.52 18.25 25.39C18.44 25.26 18.62 25.11 18.79 24.94C18.95 24.77 19.1 24.59 19.23 24.4C19.36 24.2 19.47 23.99 19.56 23.77C19.65 23.55 19.72 23.33 19.77 23.1C19.81 22.87 19.83 22.63 19.83 22.39L19.83 20.96L24.83 20.96C24.98 20.96 25.13 20.94 25.28 20.91C25.43 20.87 25.57 20.83 25.71 20.76C25.85 20.7 25.98 20.62 26.1 20.53C26.22 20.44 26.33 20.34 26.44 20.22C26.54 20.11 26.62 19.98 26.7 19.85C26.77 19.72 26.83 19.58 26.88 19.43C26.92 19.28 26.95 19.13 26.96 18.98C26.98 18.83 26.97 18.68 26.95 18.53ZM11.98 17.36L8.42 17.36L8.42 9.43L11.98 9.43L11.98 17.36ZM25.36 19.27C25.22 19.44 25.04 19.52 24.83 19.52L19.12 19.52C19.03 19.52 18.93 19.53 18.85 19.57C18.76 19.61 18.68 19.66 18.62 19.73C18.55 19.79 18.5 19.87 18.46 19.96C18.42 20.05 18.41 20.14 18.41 20.24L18.41 22.39C18.41 22.64 18.36 22.89 18.28 23.12C18.2 23.36 18.08 23.57 17.92 23.76C17.76 23.96 17.58 24.12 17.37 24.25C17.16 24.38 16.93 24.46 16.69 24.51L13.41 17.9L13.41 9.43L23.76 9.43C23.85 9.43 23.93 9.45 24.01 9.48C24.09 9.51 24.17 9.56 24.23 9.61C24.3 9.67 24.35 9.74 24.39 9.82C24.43 9.9 24.46 9.98 24.47 10.07L25.54 18.7C25.57 18.92 25.51 19.11 25.36 19.27Z" fill="#34495E" fill-opacity="1.000000" fill-rule="nonzero"/>
</svg>
