<svg width="24.999512" height="25.000977" viewBox="0 0 24.9995 25.001" fill="none" xmlns="http://www.w3.org/2000/svg" xmlns:xlink="http://www.w3.org/1999/xlink">
	<desc>
			Created with Pixso.
	</desc>
	<defs/>
	<path id="path" d="M24.41 6.17L18.82 0.58C18.64 0.39 18.42 0.25 18.17 0.15C17.93 0.05 17.67 0 17.41 0C17.14 0 16.89 0.05 16.64 0.15C16.4 0.25 16.18 0.39 16 0.58L0.58 16C0.19 16.39 -0.01 16.86 0 17.41L0 23C0 23.26 0.05 23.52 0.15 23.76C0.25 24.01 0.39 24.22 0.58 24.41C0.77 24.6 0.98 24.74 1.23 24.84C1.47 24.95 1.73 25 2 25L7.58 25C8.13 25 8.61 24.8 9 24.41L24.41 9C24.6 8.81 24.74 8.59 24.84 8.35C24.94 8.1 24.99 7.85 24.99 7.58C24.99 7.32 24.94 7.06 24.84 6.82C24.74 6.57 24.6 6.35 24.41 6.17ZM2.41 17L13 6.41L12.93 6.43L8.07 11.33L2.35 17.02L2.41 17ZM2 19.41L5.58 23L2 23L2 19.41ZM8 22.58L8.07 22.67L13.17 17.41L18.66 12.09L18.58 12L8 22.58ZM20 10.58L14.41 5L17.41 2L23 7.58L20 10.58Z" fill="#808080" fill-opacity="1.000000" fill-rule="nonzero"/>
</svg>
