<svg width="20.000000" height="20.000000" viewBox="0 0 20 20" fill="none" xmlns="http://www.w3.org/2000/svg" xmlns:xlink="http://www.w3.org/1999/xlink">
	<desc>
			Created with Pixso.
	</desc>
	<defs>
		<clipPath id="clip58_27">
			<rect id="Репозиция" width="20.000000" height="20.000000" fill="white" fill-opacity="0"/>
		</clipPath>
	</defs>
	<g clip-path="url(#clip58_27)">
		<path id="path" d="M17.54 8.31C17.54 10.58 16.29 12.72 14.77 14.48C12.46 17.16 10 19 10 19C10 19 7.59 17.11 5.28 14.43C3.76 12.68 2.51 10.54 2.51 8.27C2.51 6.32 2.84 4.53 4.34 3.15C5.84 1.77 7.87 1 10 1C12.12 1 13.97 1.92 15.47 3.3C16.97 4.68 17.54 6.5 17.54 8.31Z" fill="#FFFFFF" fill-opacity="1.000000" fill-rule="nonzero"/>
		<path id="path" d="M4.34 3.15C5.84 1.77 7.87 1 10 1C12.12 1 13.97 1.92 15.47 3.3C16.97 4.68 17.54 6.5 17.54 8.31C17.54 10.58 16.29 12.72 14.77 14.48C12.46 17.16 10 19 10 19C10 19 7.59 17.11 5.28 14.43C3.76 12.68 2.51 10.54 2.51 8.27C2.51 6.32 2.84 4.53 4.34 3.15Z" stroke="#808080" stroke-opacity="1.000000" stroke-width="1.500000" stroke-linejoin="round"/>
		<path id="path" d="M10 10C11.65 10 13 8.65 13 7C13 5.34 11.65 4 10 4C8.34 4 7 5.34 7 7C7 8.65 8.34 10 10 10Z" fill="#FFFFFF" fill-opacity="0" fill-rule="nonzero"/>
		<path id="path" d="M13 7C13 5.34 11.65 4 10 4C8.34 4 7 5.34 7 7C7 8.65 8.34 10 10 10C11.65 10 13 8.65 13 7Z" stroke="#808080" stroke-opacity="1.000000" stroke-width="1.500000" stroke-linejoin="round"/>
	</g>
</svg>
