<svg width="20.000000" height="20.000000" viewBox="0 0 20 20" fill="none" xmlns="http://www.w3.org/2000/svg" xmlns:xlink="http://www.w3.org/1999/xlink">
	<desc>
			Created with Pixso.
	</desc>
	<defs>
		<clipPath id="clip13_979">
			<rect id="Репозиция" width="20.000000" height="20.000000" fill="white" fill-opacity="0"/>
		</clipPath>
	</defs>
	<g clip-path="url(#clip13_979)">
		<path id="path" d="M18 8.36C18 14.09 10 19 10 19C10 19 2 14.09 2 8.36C2 6.41 2.84 4.53 4.34 3.15C5.84 1.77 7.87 1 10 1C12.12 1 14.15 1.77 15.65 3.15C17.15 4.53 18 6.41 18 8.36Z" fill="#808080" fill-opacity="0" fill-rule="nonzero"/>
		<path id="path" d="M10 19C10 19 2 14.09 2 8.36C2 6.41 2.84 4.53 4.34 3.15C5.84 1.77 7.87 1 10 1C12.12 1 14.15 1.77 15.65 3.15C17.15 4.53 18 6.41 18 8.36C18 14.09 10 19 10 19Z" stroke="#808080" stroke-opacity="1.000000" stroke-width="1.500000" stroke-linejoin="round"/>
		<path id="path" d="M10 10C11.65 10 13 8.65 13 7C13 5.34 11.65 4 10 4C8.34 4 7 5.34 7 7C7 8.65 8.34 10 10 10Z" fill="#FFFFFF" fill-opacity="0" fill-rule="nonzero"/>
		<path id="path" d="M13 7C13 5.34 11.65 4 10 4C8.34 4 7 5.34 7 7C7 8.65 8.34 10 10 10C11.65 10 13 8.65 13 7Z" stroke="#FFFFFF" stroke-opacity="1.000000" stroke-width="1.500000" stroke-linejoin="round"/>
	</g>
</svg>
