<svg width="16.500000" height="16.500000" viewBox="0 0 16.5 16.5" fill="none" xmlns="http://www.w3.org/2000/svg" xmlns:xlink="http://www.w3.org/1999/xlink">
	<desc>
			Created with Pixso.
	</desc>
	<defs/>
	<path id="path" d="M12.41 0.75L4.08 0.75C2.24 0.75 0.75 2.24 0.75 4.08L0.75 12.41C0.75 14.25 2.24 15.75 4.08 15.75L12.41 15.75C14.25 15.75 15.75 14.25 15.75 12.41L15.75 4.08C15.75 2.24 14.25 0.75 12.41 0.75Z" fill="#000000" fill-opacity="0" fill-rule="nonzero"/>
	<path id="path" d="M4.08 0.75C2.24 0.75 0.75 2.24 0.75 4.08L0.75 12.41C0.75 14.25 2.24 15.75 4.08 15.75L12.41 15.75C14.25 15.75 15.75 14.25 15.75 12.41L15.75 4.08C15.75 2.24 14.25 0.75 12.41 0.75L4.08 0.75Z" stroke="#5DADE2" stroke-opacity="1.000000" stroke-width="1.500000" stroke-linejoin="round"/>
	<path id="path" d="M8.25 11.58C10.09 11.58 11.58 10.09 11.58 8.24C11.58 6.4 10.09 4.91 8.25 4.91C6.4 4.91 4.91 6.4 4.91 8.24C4.91 10.09 6.4 11.58 8.25 11.58Z" fill="#000000" fill-opacity="0" fill-rule="nonzero"/>
	<path id="path" d="M11.58 8.24C11.58 6.4 10.09 4.91 8.25 4.91C6.4 4.91 4.91 6.4 4.91 8.24C4.91 10.09 6.4 11.58 8.25 11.58C10.09 11.58 11.58 10.09 11.58 8.24Z" stroke="#5DADE2" stroke-opacity="1.000000" stroke-width="1.500000" stroke-linejoin="round"/>
	<path id="path" d="M12.83 4.5C13.29 4.5 13.66 4.12 13.66 3.66C13.66 3.2 13.29 2.83 12.83 2.83C12.37 2.83 12 3.2 12 3.66C12 4.12 12.37 4.5 12.83 4.5Z" fill="#5DADE2" fill-opacity="1.000000" fill-rule="nonzero"/>
</svg>
