<svg width="33.969238" height="34.000000" viewBox="0 0 33.9692 34" fill="none" xmlns="http://www.w3.org/2000/svg" xmlns:xlink="http://www.w3.org/1999/xlink">
	<desc>
			Created with Pixso.
	</desc>
	<defs/>
	<ellipse id="Эллипс 2" cx="16.984619" cy="17.000000" rx="16.984587" ry="17.000000" fill="#FFFFFF" fill-opacity="1.000000"/>
	<ellipse id="Эллипс 2" cx="16.984619" cy="17.000000" rx="16.484587" ry="16.500000" stroke="#C4C4C4" stroke-opacity="1.000000" stroke-width="1.000000"/>
	<path id="path" d="M26.43 13.77C26.23 13.53 25.99 13.35 25.71 13.23C25.43 13.1 25.14 13.04 24.83 13.04L19.83 13.04L19.83 11.6C19.83 11.36 19.81 11.12 19.77 10.89C19.72 10.66 19.65 10.44 19.56 10.22C19.47 10 19.36 9.79 19.23 9.59C19.1 9.4 18.95 9.22 18.79 9.05C18.62 8.88 18.44 8.73 18.25 8.6C18.05 8.47 17.85 8.36 17.63 8.27C17.41 8.18 17.19 8.11 16.96 8.06C16.73 8.02 16.5 8 16.27 8C16.13 8 16.01 8.03 15.89 8.1C15.78 8.17 15.69 8.27 15.63 8.39L12.26 15.2L8.42 15.2C8.23 15.2 8.04 15.23 7.87 15.3C7.69 15.38 7.54 15.48 7.41 15.62C7.27 15.75 7.17 15.91 7.1 16.08C7.02 16.26 6.99 16.44 6.99 16.63L6.99 24.56C6.99 24.75 7.02 24.93 7.1 25.11C7.17 25.28 7.27 25.44 7.41 25.57C7.54 25.71 7.69 25.81 7.87 25.89C8.04 25.96 8.23 26 8.42 26L23.76 26C23.89 26 24.02 25.98 24.14 25.96C24.27 25.94 24.39 25.9 24.52 25.86C24.64 25.81 24.75 25.75 24.86 25.69C24.97 25.62 25.08 25.54 25.17 25.46C25.27 25.37 25.36 25.27 25.44 25.17C25.52 25.07 25.59 24.96 25.65 24.85C25.71 24.73 25.76 24.61 25.8 24.49C25.84 24.36 25.87 24.23 25.88 24.11L26.95 15.47C26.99 15.16 26.97 14.86 26.88 14.56C26.79 14.26 26.64 14 26.43 13.77ZM8.42 16.63L11.98 16.63L11.98 24.56L8.42 24.56L8.42 16.63ZM25.54 15.29L24.47 23.92C24.46 24.01 24.43 24.09 24.39 24.17C24.35 24.25 24.3 24.32 24.23 24.38C24.17 24.43 24.09 24.48 24.01 24.51C23.93 24.54 23.85 24.56 23.76 24.56L13.41 24.56L13.41 16.09L16.69 9.48C16.93 9.53 17.16 9.61 17.37 9.74C17.58 9.87 17.76 10.03 17.92 10.23C18.08 10.42 18.2 10.63 18.28 10.87C18.36 11.1 18.41 11.35 18.41 11.6L18.41 13.76C18.41 13.85 18.42 13.94 18.46 14.03C18.5 14.12 18.55 14.2 18.62 14.26C18.68 14.33 18.76 14.38 18.85 14.42C18.93 14.46 19.03 14.48 19.12 14.48L24.83 14.48C24.93 14.48 25.03 14.5 25.12 14.54C25.22 14.58 25.3 14.64 25.36 14.72C25.43 14.8 25.48 14.88 25.51 14.98C25.54 15.08 25.55 15.18 25.54 15.29Z" fill="#34495E" fill-opacity="1.000000" fill-rule="nonzero"/>
</svg>
