<svg width="23.000610" height="23.000610" viewBox="0 0 23.0006 23.0006" fill="none" xmlns="http://www.w3.org/2000/svg" xmlns:xlink="http://www.w3.org/1999/xlink">
	<desc>
			Created with Pixso.
	</desc>
	<defs/>
	<path id="path" d="M22.73 13.77C22.61 13.65 22.47 13.58 22.31 13.54C22.15 13.49 21.99 13.5 21.83 13.55C21.4 13.68 20.97 13.78 20.53 13.85C20.08 13.92 19.64 13.96 19.19 13.97C18.75 13.98 18.3 13.96 17.86 13.91C17.41 13.86 16.97 13.78 16.54 13.67C16.1 13.56 15.68 13.43 15.26 13.26C14.85 13.09 14.45 12.9 14.06 12.68C13.67 12.46 13.3 12.21 12.94 11.94C12.59 11.67 12.25 11.38 11.93 11.06C11.62 10.75 11.32 10.41 11.05 10.05C10.78 9.7 10.54 9.33 10.32 8.94C10.09 8.55 9.9 8.15 9.74 7.73C9.57 7.31 9.43 6.89 9.32 6.46C9.21 6.02 9.13 5.58 9.09 5.14C9.04 4.69 9.02 4.25 9.03 3.8C9.04 3.35 9.08 2.91 9.15 2.47C9.22 2.03 9.32 1.59 9.45 1.16C9.5 1 9.5 0.84 9.46 0.68C9.42 0.52 9.34 0.38 9.22 0.26C9.11 0.14 8.97 0.06 8.8 0.02C8.64 -0.02 8.48 -0.01 8.32 0.04C7.13 0.4 6.03 0.94 5.01 1.65C3.99 2.36 3.11 3.22 2.35 4.21C2.03 4.64 1.73 5.1 1.47 5.57C1.21 6.05 0.98 6.54 0.78 7.04C0.59 7.55 0.43 8.07 0.3 8.59C0.18 9.12 0.09 9.66 0.04 10.2C-0.01 10.74 -0.02 11.28 0.01 11.82C0.03 12.36 0.1 12.9 0.2 13.43C0.3 13.97 0.43 14.49 0.61 15.01C0.78 15.52 0.99 16.02 1.23 16.51C1.47 16.99 1.75 17.46 2.05 17.91C2.36 18.35 2.7 18.78 3.06 19.18C3.43 19.58 3.82 19.95 4.24 20.3C4.66 20.64 5.1 20.96 5.56 21.24C6.02 21.53 6.5 21.78 7 22C7.49 22.22 8 22.4 8.52 22.55C9.05 22.7 9.58 22.81 10.11 22.88C10.65 22.96 11.19 23 11.73 23C13.01 23 14.25 22.8 15.45 22.4C16.66 21.99 17.77 21.41 18.78 20.64C19.78 19.89 20.63 19.01 21.34 17.99C22.05 16.97 22.59 15.86 22.96 14.67C23 14.51 23.01 14.35 22.97 14.19C22.93 14.03 22.85 13.89 22.73 13.77ZM17.7 19.2C17.22 19.56 16.72 19.87 16.19 20.14C15.66 20.4 15.11 20.62 14.55 20.79C13.98 20.96 13.4 21.07 12.81 21.14C12.22 21.2 11.63 21.21 11.04 21.17C10.44 21.13 9.86 21.04 9.29 20.89C8.71 20.74 8.15 20.55 7.61 20.3C7.07 20.06 6.56 19.76 6.07 19.43C5.58 19.09 5.13 18.71 4.71 18.29C4.29 17.87 3.91 17.42 3.58 16.93C3.24 16.44 2.95 15.93 2.7 15.39C2.45 14.85 2.26 14.29 2.11 13.72C1.96 13.14 1.87 12.56 1.83 11.97C1.79 11.37 1.8 10.78 1.86 10.19C1.93 9.6 2.04 9.02 2.21 8.45C2.38 7.89 2.6 7.34 2.87 6.81C3.13 6.28 3.44 5.77 3.8 5.3C4.75 4.05 5.93 3.07 7.34 2.37C7.26 2.92 7.22 3.48 7.22 4.05C7.22 4.43 7.24 4.81 7.28 5.2C7.32 5.58 7.38 5.96 7.45 6.33C7.53 6.71 7.62 7.08 7.73 7.45C7.84 7.82 7.97 8.18 8.12 8.53C8.27 8.89 8.43 9.24 8.61 9.57C8.79 9.91 8.99 10.24 9.2 10.56C9.42 10.88 9.65 11.19 9.89 11.49C10.13 11.78 10.39 12.07 10.66 12.34C10.93 12.61 11.22 12.87 11.51 13.11C11.81 13.35 12.12 13.58 12.44 13.8C12.76 14.01 13.09 14.21 13.42 14.39C13.76 14.57 14.11 14.73 14.46 14.88C14.82 15.03 15.18 15.16 15.55 15.27C15.91 15.38 16.29 15.47 16.66 15.55C17.04 15.63 17.42 15.68 17.8 15.72C18.18 15.76 18.57 15.78 18.95 15.78C19.51 15.78 20.07 15.74 20.63 15.66C19.93 17.07 18.95 18.25 17.7 19.2Z" fill="#FFFFFF" fill-opacity="1.000000" fill-rule="nonzero"/>
</svg>
