<svg width="24.500000" height="24.500000" viewBox="0 0 24.5 24.5" fill="none" xmlns="http://www.w3.org/2000/svg" xmlns:xlink="http://www.w3.org/1999/xlink">
	<desc>
			Created with Pixso.
	</desc>
	<defs/>
	<path id="path" d="M14.58 0.98C11.43 1.8 9.11 4.66 9.11 8.06C9.11 12.1 12.39 15.38 16.43 15.38C19.83 15.38 22.69 13.06 23.51 9.91C23.66 10.67 23.75 11.45 23.75 12.25C23.75 18.6 18.6 23.75 12.25 23.75C5.89 23.75 0.75 18.6 0.75 12.25C0.75 5.89 5.89 0.75 12.25 0.75C13.04 0.75 13.82 0.83 14.58 0.98Z" fill="#000000" fill-opacity="0" fill-rule="nonzero"/>
	<path id="path" d="M9.11 8.06C9.11 12.1 12.39 15.38 16.43 15.38C19.83 15.38 22.69 13.06 23.51 9.91C23.66 10.67 23.75 11.45 23.75 12.25C23.75 18.6 18.6 23.75 12.25 23.75C5.89 23.75 0.75 18.6 0.75 12.25C0.75 5.89 5.89 0.75 12.25 0.75C13.04 0.75 13.82 0.83 14.58 0.98C11.43 1.8 9.11 4.66 9.11 8.06Z" stroke="#D9D9D9" stroke-opacity="1.000000" stroke-width="1.500000" stroke-linejoin="round"/>
</svg>
