<svg width="13.000000" height="14.000000" viewBox="0 0 13 14" fill="none" xmlns="http://www.w3.org/2000/svg" xmlns:xlink="http://www.w3.org/1999/xlink">
	<desc>
			Created with Pixso.
	</desc>
	<defs/>
	<path id="path" d="M13 1.39L13 10.5C13 10.68 12.96 10.86 12.89 11.03C12.82 11.2 12.72 11.35 12.59 11.48C12.47 11.62 12.32 11.72 12.15 11.79C11.98 11.86 11.81 11.89 11.63 11.89L2.33 11.89L3.22 12.8C3.28 12.87 3.33 12.94 3.36 13.03C3.4 13.11 3.42 13.2 3.42 13.29C3.42 13.39 3.4 13.48 3.36 13.56C3.33 13.65 3.28 13.72 3.22 13.79C3.15 13.85 3.08 13.91 2.99 13.94C2.91 13.98 2.82 14 2.73 14C2.64 14 2.55 13.98 2.47 13.94C2.39 13.91 2.31 13.86 2.25 13.79L0.2 11.69C0.13 11.62 0.08 11.55 0.05 11.46C0.01 11.38 0 11.29 0 11.2C0 11.1 0.01 11.01 0.05 10.93C0.08 10.84 0.13 10.77 0.2 10.7L2.25 8.6C2.31 8.53 2.39 8.48 2.47 8.45C2.55 8.41 2.64 8.39 2.73 8.39C2.82 8.39 2.91 8.41 2.99 8.45C3.08 8.48 3.15 8.53 3.22 8.6C3.28 8.67 3.33 8.74 3.36 8.83C3.4 8.91 3.42 9 3.42 9.1C3.42 9.19 3.4 9.28 3.36 9.36C3.33 9.45 3.28 9.52 3.22 9.59L2.33 10.5L11.63 10.5L11.63 1.39L2.05 1.39L2.05 2.1C2.05 2.19 2.03 2.28 2 2.36C1.96 2.45 1.91 2.52 1.85 2.59C1.78 2.66 1.71 2.71 1.63 2.74C1.54 2.78 1.45 2.79 1.36 2.79C1.27 2.79 1.19 2.78 1.1 2.74C1.02 2.71 0.94 2.66 0.88 2.59C0.82 2.52 0.77 2.45 0.73 2.36C0.7 2.28 0.68 2.19 0.68 2.1L0.68 1.39C0.68 1.21 0.71 1.03 0.78 0.86C0.85 0.69 0.95 0.54 1.08 0.41C1.21 0.27 1.36 0.17 1.52 0.1C1.69 0.03 1.87 0 2.05 0L11.63 0C11.81 0 11.98 0.03 12.15 0.1C12.32 0.17 12.47 0.27 12.59 0.41C12.72 0.54 12.82 0.69 12.89 0.86C12.96 1.03 13 1.21 13 1.39Z" fill="#808080" fill-opacity="1.000000" fill-rule="nonzero"/>
</svg>
