<svg width="21.753067" height="21.753052" viewBox="0 0 21.7531 21.7531" fill="none" xmlns="http://www.w3.org/2000/svg" xmlns:xlink="http://www.w3.org/1999/xlink">
	<desc>
			Created with Pixso.
	</desc>
	<defs/>
	<path id="path" d="M9.5 18C14.19 18 18 14.19 18 9.5C18 4.8 14.19 1 9.5 1C4.8 1 1 4.8 1 9.5C1 14.19 4.8 18 9.5 18Z" fill="#000000" fill-opacity="0" fill-rule="nonzero"/>
	<path id="path" d="M18 9.5C18 4.8 14.19 1 9.5 1C4.8 1 1 4.8 1 9.5C1 14.19 4.8 18 9.5 18C14.19 18 18 14.19 18 9.5Z" stroke="#808080" stroke-opacity="1.000000" stroke-width="2.000000" stroke-linejoin="round"/>
	<path id="path" d="M12.83 5.64L12.85 5.64C13.15 5.93 13.15 6.4 12.85 6.7C12.56 6.99 12.09 6.99 11.79 6.7L11.79 6.67L12.83 5.64ZM7.2 6.67L7.2 6.7C6.9 6.99 6.43 6.99 6.14 6.7C5.84 6.4 5.84 5.93 6.14 5.64L6.16 5.64L7.2 6.67Z" fill="#000000" fill-opacity="0" fill-rule="nonzero"/>
	<path id="path" d="M12.32 6.17C11.6 5.44 10.6 5 9.5 5C8.39 5 7.39 5.44 6.67 6.17" stroke="#808080" stroke-opacity="1.000000" stroke-width="1.500000" stroke-linejoin="round" stroke-linecap="round"/>
	<path id="path" d="M15.49 16.53L15.46 16.53C15.17 16.23 15.17 15.76 15.46 15.46C15.76 15.17 16.23 15.17 16.53 15.46L16.53 15.49L15.49 16.53ZM21.5 20.46L21.53 20.46C21.82 20.76 21.82 21.23 21.53 21.53C21.23 21.82 20.76 21.82 20.46 21.53L20.46 21.5L21.5 20.46Z" fill="#000000" fill-opacity="0" fill-rule="nonzero"/>
	<path id="path" d="M16 16L21 21" stroke="#808080" stroke-opacity="1.000000" stroke-width="1.500000" stroke-linejoin="round" stroke-linecap="round"/>
</svg>
