<svg width="23.000000" height="23.000000" viewBox="0 0 23 23" fill="none" xmlns="http://www.w3.org/2000/svg" xmlns:xlink="http://www.w3.org/1999/xlink">
	<desc>
			Created with Pixso.
	</desc>
	<defs/>
	<path id="path" d="M11.5 18C15.08 18 18 15.08 18 11.5C18 7.91 15.08 5 11.5 5C7.91 5 5 7.91 5 11.5C5 15.08 7.91 18 11.5 18Z" fill="#000000" fill-opacity="0" fill-rule="nonzero"/>
	<path id="path" d="M18 11.5C18 7.91 15.08 5 11.5 5C7.91 5 5 7.91 5 11.5C5 15.08 7.91 18 11.5 18C15.08 18 18 15.08 18 11.5Z" stroke="#FFFFFF" stroke-opacity="1.000000" stroke-width="1.500000" stroke-linejoin="round"/>
	<path id="path" d="M11.5 2.5C12.19 2.5 12.75 1.94 12.75 1.25C12.75 0.55 12.19 0 11.5 0C10.8 0 10.25 0.55 10.25 1.25C10.25 1.94 10.8 2.5 11.5 2.5Z" fill="#FFFFFF" fill-opacity="1.000000" fill-rule="nonzero"/>
	<path id="path" d="M18.75 5.5C19.44 5.5 20 4.94 20 4.25C20 3.55 19.44 3 18.75 3C18.05 3 17.5 3.55 17.5 4.25C17.5 4.94 18.05 5.5 18.75 5.5Z" fill="#FFFFFF" fill-opacity="1.000000" fill-rule="nonzero"/>
	<path id="path" d="M21.75 12.75C22.44 12.75 23 12.19 23 11.5C23 10.8 22.44 10.25 21.75 10.25C21.05 10.25 20.5 10.8 20.5 11.5C20.5 12.19 21.05 12.75 21.75 12.75Z" fill="#FFFFFF" fill-opacity="1.000000" fill-rule="nonzero"/>
	<path id="path" d="M18.75 20C19.44 20 20 19.44 20 18.75C20 18.05 19.44 17.5 18.75 17.5C18.05 17.5 17.5 18.05 17.5 18.75C17.5 19.44 18.05 20 18.75 20Z" fill="#FFFFFF" fill-opacity="1.000000" fill-rule="nonzero"/>
	<path id="path" d="M11.5 23C12.19 23 12.75 22.44 12.75 21.75C12.75 21.05 12.19 20.5 11.5 20.5C10.8 20.5 10.25 21.05 10.25 21.75C10.25 22.44 10.8 23 11.5 23Z" fill="#FFFFFF" fill-opacity="1.000000" fill-rule="nonzero"/>
	<path id="path" d="M4.25 20C4.94 20 5.5 19.44 5.5 18.75C5.5 18.05 4.94 17.5 4.25 17.5C3.55 17.5 3 18.05 3 18.75C3 19.44 3.55 20 4.25 20Z" fill="#FFFFFF" fill-opacity="1.000000" fill-rule="nonzero"/>
	<path id="path" d="M1.25 12.75C1.94 12.75 2.5 12.19 2.5 11.5C2.5 10.8 1.94 10.25 1.25 10.25C0.55 10.25 0 10.8 0 11.5C0 12.19 0.55 12.75 1.25 12.75Z" fill="#FFFFFF" fill-opacity="1.000000" fill-rule="nonzero"/>
	<path id="path" d="M4.25 5.5C4.94 5.5 5.5 4.94 5.5 4.25C5.5 3.55 4.94 3 4.25 3C3.55 3 3 3.55 3 4.25C3 4.94 3.55 5.5 4.25 5.5Z" fill="#FFFFFF" fill-opacity="1.000000" fill-rule="nonzero"/>
</svg>
