<svg width="15.000000" height="15.000000" viewBox="0 0 15 15" fill="none" xmlns="http://www.w3.org/2000/svg" xmlns:xlink="http://www.w3.org/1999/xlink">
	<desc>
			Created with Pixso.
	</desc>
	<defs/>
	<path id="path" d="M13.72 0.13C13.72 0.13 15.1 -0.52 14.99 1.05C14.95 1.7 14.6 3.98 14.33 6.43L13.41 13.72C13.41 13.72 13.33 14.78 12.64 14.97C11.94 15.15 10.9 14.32 10.71 14.13C10.56 13.99 7.82 11.91 6.86 10.89C6.59 10.61 6.28 10.05 6.89 9.4L10.94 4.77C11.4 4.21 11.87 2.91 9.94 4.49L4.54 8.89C4.54 8.89 3.93 9.36 2.77 8.94L0.26 8.01C0.26 8.01 -0.66 7.32 0.92 6.62C4.77 4.44 9.51 2.21 13.72 0.13Z" fill="#5DADE2" fill-opacity="1.000000" fill-rule="nonzero"/>
</svg>
