<svg width="24.000000" height="24.000000" viewBox="0 0 24 24" fill="none" xmlns="http://www.w3.org/2000/svg" xmlns:xlink="http://www.w3.org/1999/xlink">
	<desc>
			Created with Pixso.
	</desc>
	<defs>
		<clipPath id="clip32_661">
			<rect id="Трофей" width="24.000000" height="24.000000" fill="white" fill-opacity="0"/>
		</clipPath>
	</defs>
	<g clip-path="url(#clip32_661)">
		<path id="path" d="M12 15C15.31 15 18 12.23 18 8.82L18 2L6 2L6 8.82C6 12.23 8.68 15 12 15Z" fill="#000000" fill-opacity="0" fill-rule="nonzero"/>
		<path id="path" d="M18 8.82L18 2L6 2L6 8.82C6 12.23 8.68 15 12 15C15.31 15 18 12.23 18 8.82Z" stroke="#5DADE2" stroke-opacity="1.000000" stroke-width="1.500000" stroke-linejoin="round"/>
		<path id="path" d="M6 10.5L6 5.5L2 5.5C2 8.83 4 10.5 6 10.5Z" fill="#000000" fill-opacity="0" fill-rule="evenodd"/>
		<path id="path" d="M6 5.5L2 5.5C2 8.83 4 10.5 6 10.5L6 5.5Z" stroke="#5DADE2" stroke-opacity="1.000000" stroke-width="1.500000" stroke-linejoin="round"/>
		<path id="path" d="M18 10.5L18 5.5L22 5.5C22 8.83 20 10.5 18 10.5Z" fill="#000000" fill-opacity="0" fill-rule="evenodd"/>
		<path id="path" d="M18 5.5L22 5.5C22 8.83 20 10.5 18 10.5L18 5.5Z" stroke="#5DADE2" stroke-opacity="1.000000" stroke-width="1.500000" stroke-linejoin="round"/>
		<path id="path" d="M11.27 16.02L11.25 16C11.25 15.58 11.58 15.25 12 15.25C12.41 15.25 12.75 15.58 12.75 16L12.73 16.02L11.27 16.02ZM12.73 17.98L12.75 18C12.75 18.42 12.41 18.75 12 18.75C11.58 18.75 11.25 18.42 11.25 18L11.27 17.98L12.73 17.98Z" fill="#000000" fill-opacity="0" fill-rule="nonzero"/>
		<path id="path" d="M12 16L12 18" stroke="#5DADE2" stroke-opacity="1.000000" stroke-width="1.500000" stroke-linejoin="round" stroke-linecap="round"/>
		<path id="path" d="M7.5 21L9.34 18L14.52 18L16.5 21L7.5 21Z" fill="#000000" fill-opacity="0" fill-rule="nonzero"/>
		<path id="path" d="M9.34 18L14.52 18L16.5 21L7.5 21L9.34 18Z" stroke="#5DADE2" stroke-opacity="1.000000" stroke-width="1.500000" stroke-linejoin="round"/>
	</g>
</svg>
