<svg width="24.000000" height="24.000000" viewBox="0 0 24 24" fill="none" xmlns="http://www.w3.org/2000/svg" xmlns:xlink="http://www.w3.org/1999/xlink">
	<desc>
			Created with Pixso.
	</desc>
	<defs>
		<clipPath id="clip6_140">
			<rect id="users" width="24.000000" height="24.000000" fill="white" fill-opacity="0"/>
		</clipPath>
	</defs>
	<g clip-path="url(#clip6_140)">
		<circle id="circle" cx="7.000000" cy="14.500000" r="2.500000" fill="#000000" fill-opacity="0"/>
		<circle id="circle" cx="7.000000" cy="14.500000" r="2.500000" stroke="#808080" stroke-opacity="1.000000" stroke-width="1.500000" stroke-linejoin="round"/>
		<circle id="circle" cx="17.000000" cy="14.500000" r="2.500000" fill="#000000" fill-opacity="0"/>
		<circle id="circle" cx="17.000000" cy="14.500000" r="2.500000" stroke="#808080" stroke-opacity="1.000000" stroke-width="1.500000" stroke-linejoin="round"/>
		<circle id="circle" cx="12.000000" cy="4.500000" r="2.500000" fill="#000000" fill-opacity="0"/>
		<circle id="circle" cx="12.000000" cy="4.500000" r="2.500000" stroke="#808080" stroke-opacity="1.000000" stroke-width="1.500000" stroke-linejoin="round"/>
		<path id="path" d="M12.73 21.98L12.75 22C12.75 22.42 12.42 22.75 12 22.75C11.58 22.75 11.25 22.42 11.25 22L11.27 21.98L12.73 21.98ZM2.73 21.98L2.75 22C2.75 22.42 2.42 22.75 2 22.75C1.58 22.75 1.25 22.42 1.25 22L1.27 21.98L2.73 21.98Z" fill="#000000" fill-opacity="0" fill-rule="nonzero"/>
		<path id="path" d="M12 22C12 19.23 9.76 17 7 17C4.23 17 2 19.23 2 22" stroke="#808080" stroke-opacity="1.000000" stroke-width="1.500000" stroke-linejoin="round" stroke-linecap="round"/>
		<path id="path" d="M22.73 21.98L22.75 22C22.75 22.42 22.42 22.75 22 22.75C21.58 22.75 21.25 22.42 21.25 22L21.27 21.98L22.73 21.98ZM12.73 21.98L12.75 22C12.75 22.42 12.42 22.75 12 22.75C11.58 22.75 11.25 22.42 11.25 22L11.27 21.98L12.73 21.98Z" fill="#000000" fill-opacity="0" fill-rule="nonzero"/>
		<path id="path" d="M22 22C22 19.23 19.76 17 17 17C14.23 17 12 19.23 12 22" stroke="#808080" stroke-opacity="1.000000" stroke-width="1.500000" stroke-linejoin="round" stroke-linecap="round"/>
		<path id="path" d="M17.73 11.98L17.75 12C17.75 12.42 17.42 12.75 17 12.75C16.58 12.75 16.25 12.42 16.25 12L16.27 11.98L17.73 11.98ZM7.73 11.98L7.75 12C7.75 12.42 7.42 12.75 7 12.75C6.58 12.75 6.25 12.42 6.25 12L6.27 11.98L7.73 11.98Z" fill="#000000" fill-opacity="0" fill-rule="nonzero"/>
		<path id="path" d="M17 12C17 9.23 14.76 7 12 7C9.23 7 7 9.23 7 12" stroke="#808080" stroke-opacity="1.000000" stroke-width="1.500000" stroke-linejoin="round" stroke-linecap="round"/>
	</g>
</svg>
