<svg width="200" height="60" viewBox="0 0 200 60" fill="none" xmlns="http://www.w3.org/2000/svg">
<g filter="url(#filter0_i_2012_532)">
<rect width="200" height="60" rx="8" fill="url(#paint0_linear_2012_532)"/>
</g>
<g opacity="0.6">
<path d="M11.6384 25C11.2709 23.8018 10.7165 22.9084 9.97529 22.3199C8.86342 21.4375 7.09679 21.9861 6.44429 21.0756C5.79179 20.1651 6.90142 18.4911 7.29067 17.5034C7.67992 16.5156 5.79817 16.1665 6.01792 15.886C6.16417 15.699 7.11529 15.1595 8.87129 14.2675C9.37004 11.4225 11.2127 10 14.3992 10C19.1789 10 20.9999 14.0523 20.9999 16.63C20.9999 19.207 18.7949 21.9835 15.6539 22.5824C15.3732 22.9914 15.7782 23.7973 16.8689 25" fill="#FFEC45"/>
<path d="M11.6384 25C11.2709 23.8018 10.7165 22.9084 9.97529 22.3199C8.86342 21.4375 7.09679 21.9861 6.44429 21.0756C5.79179 20.1651 6.90142 18.4911 7.29067 17.5034C7.67992 16.5156 5.79817 16.1665 6.01792 15.886C6.16417 15.699 7.11529 15.1595 8.87129 14.2675C9.37004 11.4225 11.2127 10 14.3992 10C19.1789 10 20.9999 14.0523 20.9999 16.63C20.9999 19.207 18.7949 21.9835 15.6539 22.5824C15.3732 22.9914 15.7782 23.7973 16.8689 25" stroke="white" stroke-width="2.3335" stroke-linecap="round" stroke-linejoin="round"/>
<path fill-rule="evenodd" clip-rule="evenodd" d="M11.8124 13.9376C11.5671 14.8878 11.64 15.5552 12.031 15.9397C12.4218 16.324 13.0878 16.5752 14.029 16.6935C13.8153 17.9192 14.0756 18.4942 14.8101 18.4184C15.5444 18.3429 15.9856 18.038 16.1339 17.5035C17.2814 17.826 17.9034 17.556 17.9999 16.6935C18.1443 15.3997 17.4468 14.3681 17.1606 14.3681C16.8745 14.3681 16.1339 14.3332 16.1339 13.9376C16.1339 13.542 15.2684 13.3188 14.4873 13.3188C13.7061 13.3188 14.176 12.792 13.1035 13.0001C12.3885 13.1388 11.9581 13.4513 11.8124 13.9376Z" fill="white" stroke="white" stroke-width="2" stroke-linejoin="round"/>
<path d="M15.9374 18.0625C15.5561 18.2991 15.0329 18.6925 14.8124 19C14.2616 19.7687 13.8149 20.2368 13.7174 20.728" fill="white"/>
<path d="M15.9374 18.0625C15.5561 18.2991 15.0329 18.6925 14.8124 19C14.2616 19.7687 13.8149 20.2368 13.7174 20.728" stroke="white" stroke-width="2" stroke-linecap="round"/>
</g>
<g opacity="0.6">
<path d="M176.446 53.9482C176.401 52.6957 176.097 51.6893 175.533 50.929C174.688 49.7889 172.839 49.8616 172.445 48.8132C172.05 47.7649 173.555 46.4351 174.187 45.5818C174.819 44.7284 173.091 43.9041 173.376 43.6901C173.566 43.5473 174.624 43.2724 176.551 42.8652C177.769 40.2463 179.917 39.3491 182.995 40.1739C187.612 41.411 188.322 45.7964 187.655 48.2864C186.988 50.7755 184.14 52.8867 180.951 52.6523C180.574 52.9747 180.756 53.8579 181.499 55.302" fill="#FFEC45"/>
<path d="M176.446 53.9482C176.401 52.6957 176.097 51.6893 175.533 50.929C174.688 49.7889 172.839 49.8616 172.445 48.8132C172.05 47.7649 173.555 46.4351 174.187 45.5818C174.819 44.7284 173.091 43.9041 173.376 43.6901C173.566 43.5473 174.624 43.2724 176.551 42.8652C177.769 40.2463 179.917 39.3491 182.995 40.1739C187.612 41.411 188.322 45.7964 187.655 48.2864C186.988 50.7755 184.14 52.8867 180.951 52.6523C180.574 52.9747 180.756 53.8579 181.499 55.302" stroke="white" stroke-width="2.3335" stroke-linecap="round" stroke-linejoin="round"/>
<path fill-rule="evenodd" clip-rule="evenodd" d="M179.477 43.3077C178.995 44.1621 178.892 44.8256 179.17 45.2982C179.448 45.7705 180.027 46.1856 180.905 46.5434C180.382 47.6721 180.484 48.2949 181.213 48.4118C181.942 48.5289 182.447 48.3485 182.729 47.8706C183.754 48.4791 184.424 48.3793 184.741 47.5712C185.215 46.3589 184.808 45.1819 184.532 45.1078C184.256 45.0337 183.549 44.8084 183.652 44.4262C183.754 44.0441 182.976 43.6046 182.221 43.4024C181.467 43.2002 182.057 42.8129 180.967 42.7364C180.241 42.6853 179.744 42.8758 179.477 43.3077Z" fill="white" stroke="white" stroke-width="2" stroke-linejoin="round"/>
<path d="M182.394 48.3597C181.965 48.4896 181.358 48.7342 181.065 48.9741C180.334 49.5741 179.781 49.9106 179.56 50.3598" fill="white"/>
<path d="M182.394 48.3597C181.965 48.4896 181.358 48.7342 181.065 48.9741C180.334 49.5741 179.781 49.9106 179.56 50.3598" stroke="white" stroke-width="2" stroke-linecap="round"/>
</g>
<g opacity="0.6">
<path d="M72.1479 19.3931C71.5787 18.2765 70.8782 17.4925 70.0463 17.0411C68.7986 16.3643 67.1535 17.2102 66.3533 16.4263C65.5532 15.6424 66.3565 13.8017 66.569 12.7615C66.7816 11.7213 64.8678 11.7029 65.0357 11.3887C65.1474 11.1792 65.9909 10.4833 67.5662 9.30102C67.5653 6.41264 69.1341 4.69286 72.2726 4.1417C76.9803 3.31497 79.4747 6.99117 79.9206 9.53006C80.3663 12.0682 78.6748 15.1843 75.6847 16.3174C75.479 16.7688 76.0173 17.4925 77.2996 18.4884" fill="#FFEC45"/>
<path d="M72.1479 19.3931C71.5787 18.2765 70.8782 17.4925 70.0463 17.0411C68.7986 16.3643 67.1535 17.2102 66.3533 16.4263C65.5532 15.6424 66.3565 13.8017 66.569 12.7615C66.7816 11.7213 64.8678 11.7029 65.0357 11.3887C65.1474 11.1792 65.9909 10.4833 67.5662 9.30102C67.5653 6.41264 69.1341 4.69286 72.2726 4.1417C76.9803 3.31497 79.4747 6.99117 79.9206 9.53006C80.3663 12.0682 78.6748 15.1843 75.6847 16.3174C75.479 16.7688 76.0173 17.4925 77.2996 18.4884" stroke="white" stroke-width="2.3335" stroke-linecap="round" stroke-linejoin="round"/>
<path fill-rule="evenodd" clip-rule="evenodd" d="M70.4059 8.46728C70.3287 9.44562 70.5159 10.0903 70.9675 10.4014C71.4188 10.7123 72.1183 10.8445 73.0658 10.7982C73.0673 12.0425 73.4232 12.5638 74.1335 12.3621C74.8436 12.1607 75.2255 11.784 75.279 11.2319C76.465 11.3511 77.0309 10.9776 76.9768 10.1114C76.8952 8.81216 76.0298 7.91673 75.748 7.96622C75.4662 8.01571 74.7307 8.10946 74.6622 7.7198C74.5938 7.33014 73.7028 7.26008 72.9334 7.39519C72.1641 7.5303 72.5357 6.93009 71.5154 7.32058C70.8352 7.58091 70.4653 7.96315 70.4059 8.46728Z" fill="white" stroke="white" stroke-width="2" stroke-linejoin="round"/>
<path d="M75.1822 11.8166C74.8475 12.1156 74.4003 12.5935 74.2363 12.9345C73.8267 13.787 73.4678 14.3252 73.4567 14.8259" fill="white"/>
<path d="M75.1822 11.8166C74.8475 12.1156 74.4003 12.5935 74.2363 12.9345C73.8267 13.787 73.4678 14.3252 73.4567 14.8259" stroke="white" stroke-width="2" stroke-linecap="round"/>
</g>
<g opacity="0.6">
<path d="M130.974 52.6393C130.852 51.2299 130.451 50.1129 129.772 49.2881C128.754 48.0513 126.674 48.239 126.169 47.0798C125.664 45.9206 127.285 44.3355 127.948 43.3374C128.611 42.3393 126.617 41.509 126.926 41.2514C127.132 41.0796 128.309 40.7091 130.458 40.1399C131.681 37.1179 134.051 35.9837 137.568 36.7372C142.843 37.8675 143.895 42.7705 143.285 45.6155C142.676 48.4596 139.586 51.0025 135.977 50.9207C135.571 51.3057 135.827 52.2909 136.747 53.8762" fill="#FFEC45"/>
<path d="M130.974 52.6393C130.852 51.2299 130.451 50.1129 129.772 49.2881C128.754 48.0513 126.674 48.239 126.169 47.0798C125.664 45.9206 127.285 44.3355 127.948 43.3374C128.611 42.3393 126.617 41.509 126.926 41.2514C127.132 41.0796 128.309 40.7091 130.458 40.1399C131.681 37.1179 134.051 35.9837 137.568 36.7372C142.843 37.8675 143.895 42.7705 143.285 45.6155C142.676 48.4596 139.586 51.0025 135.977 50.9207C135.571 51.3057 135.827 52.2909 136.747 53.8762" stroke="white" stroke-width="2.3335" stroke-linecap="round" stroke-linejoin="round"/>
<path fill-rule="evenodd" clip-rule="evenodd" d="M133.782 40.4712C133.286 41.4619 133.209 42.2157 133.55 42.7325C133.89 43.249 134.566 43.6838 135.577 44.0369C135.051 45.3392 135.202 46.0354 136.031 46.1255C136.859 46.2158 137.418 45.9835 137.708 45.4286C138.898 46.0559 139.649 45.905 139.959 44.9759C140.424 43.5822 139.899 42.2787 139.583 42.211C139.267 42.1434 138.458 41.9298 138.551 41.4931C138.645 41.0565 137.742 40.6055 136.88 40.4208C136.018 40.2361 136.661 39.7657 135.429 39.7418C134.607 39.7259 134.058 39.969 133.782 40.4712Z" fill="white" stroke="white" stroke-width="2" stroke-linejoin="round"/>
<path d="M137.359 45.9992C136.882 46.1702 136.212 46.4806 135.896 46.7679C135.106 47.486 134.502 47.8969 134.279 48.4161" fill="white"/>
<path d="M137.359 45.9992C136.882 46.1702 136.212 46.4806 135.896 46.7679C135.106 47.486 134.502 47.8969 134.279 48.4161" stroke="white" stroke-width="2" stroke-linecap="round"/>
</g>
<g opacity="0.6">
<path d="M63.2229 54.8883C63.1007 53.479 62.7001 52.3619 62.0212 51.5371C61.0027 50.3003 58.9232 50.488 58.4184 49.3288C57.9135 48.1697 59.5341 46.5845 60.1972 45.5864C60.8604 44.5883 58.8662 43.758 59.175 43.5004C59.3807 43.3286 60.558 42.9581 62.7069 42.3889C63.9302 39.3669 66.3002 38.2327 69.817 38.9862C75.0923 40.1166 76.1438 45.0195 75.5342 47.8645C74.9248 50.7086 71.8346 53.2515 68.2264 53.1697C67.8198 53.5547 68.0762 54.5399 68.9956 56.1253" fill="#FFEC45"/>
<path d="M63.2229 54.8883C63.1007 53.479 62.7001 52.3619 62.0212 51.5371C61.0027 50.3003 58.9232 50.488 58.4184 49.3288C57.9135 48.1697 59.5341 46.5845 60.1972 45.5864C60.8604 44.5883 58.8662 43.758 59.175 43.5004C59.3807 43.3286 60.558 42.9581 62.7069 42.3889C63.9302 39.3669 66.3002 38.2327 69.817 38.9862C75.0923 40.1166 76.1438 45.0195 75.5342 47.8645C74.9248 50.7086 71.8346 53.2515 68.2264 53.1697C67.8198 53.5547 68.0762 54.5399 68.9956 56.1253" stroke="white" stroke-width="2.3335" stroke-linecap="round" stroke-linejoin="round"/>
<path fill-rule="evenodd" clip-rule="evenodd" d="M66.031 42.7202C65.5356 43.7109 65.4582 44.4647 65.7988 44.9816C66.1392 45.4981 66.8148 45.9328 67.8257 46.2859C67.2999 47.5882 67.4513 48.2844 68.2798 48.3745C69.1081 48.4648 69.6672 48.2325 69.9572 47.6777C71.1474 48.305 71.8977 48.1541 72.2082 47.225C72.6735 45.8312 72.1476 44.5277 71.8318 44.4601C71.516 44.3924 70.7069 44.1788 70.8004 43.7421C70.894 43.3055 69.9915 42.8546 69.1294 42.6699C68.2673 42.4851 68.9105 42.0148 67.6776 41.9908C66.8557 41.9749 66.3068 42.218 66.031 42.7202Z" fill="white" stroke="white" stroke-width="2" stroke-linejoin="round"/>
<path d="M69.6082 48.2483C69.1313 48.4192 68.4609 48.7297 68.1448 49.0169C67.3551 49.7351 66.7515 50.146 66.5277 50.6651" fill="white"/>
<path d="M69.6082 48.2483C69.1313 48.4192 68.4609 48.7297 68.1448 49.0169C67.3551 49.7351 66.7515 50.146 66.5277 50.6651" stroke="white" stroke-width="2" stroke-linecap="round"/>
</g>
<g opacity="0.6">
<path d="M19.3454 53.4901C18.6614 52.7113 17.94 52.2259 17.1812 52.0338C16.0431 51.746 14.8972 52.7596 14.096 52.2946C13.2948 51.8296 13.5631 50.1905 13.5212 49.3134C13.4793 48.4364 11.9418 48.8122 12.0122 48.526C12.059 48.3353 12.593 47.6055 13.6143 46.3366C13.0243 44.0219 13.9307 42.3235 16.3336 41.2415C19.9379 39.6184 22.6871 42.0557 23.5624 43.9996C24.4375 45.9428 23.7176 48.7852 21.5524 50.3034C21.4796 50.7072 22.0586 51.1773 23.2896 51.7139" fill="#FFEC45"/>
<path d="M19.3454 53.4901C18.6614 52.7113 17.94 52.2259 17.1812 52.0338C16.0431 51.746 14.8972 52.7596 14.096 52.2946C13.2948 51.8296 13.5631 50.1905 13.5212 49.3134C13.4793 48.4364 11.9418 48.8122 12.0122 48.526C12.059 48.3353 12.593 47.6055 13.6143 46.3366C13.0243 44.0219 13.9307 42.3235 16.3336 41.2415C19.9379 39.6184 22.6871 42.0557 23.5624 43.9996C24.4375 45.9428 23.7176 48.7852 21.5524 50.3034C21.4796 50.7072 22.0586 51.1773 23.2896 51.7139" stroke="white" stroke-width="2.3335" stroke-linecap="round" stroke-linejoin="round"/>
<path fill-rule="evenodd" clip-rule="evenodd" d="M15.7201 45.0892C15.8578 45.889 16.1394 46.3675 16.5648 46.5247C16.9899 46.6817 17.5775 46.645 18.3274 46.4146C18.5824 47.4115 18.974 47.7566 19.5022 47.4501C20.0302 47.1438 20.2594 46.764 20.1897 46.3106C21.1645 46.1642 21.5418 45.7493 21.3217 45.0662C20.9913 44.0416 20.115 43.5005 19.8992 43.5977C19.6835 43.6948 19.1131 43.92 18.9788 43.6217C18.8444 43.3234 18.116 43.449 17.527 43.7143C16.938 43.9795 17.1134 43.4227 16.3753 43.9438C15.8833 44.2912 15.6649 44.673 15.7201 45.0892Z" fill="white" stroke="white" stroke-width="2" stroke-linejoin="round"/>
<path d="M20.2313 46.7988C20.0241 47.1067 19.7632 47.581 19.7013 47.8877C19.547 48.6545 19.3691 49.159 19.4624 49.5626" fill="white"/>
<path d="M20.2313 46.7988C20.0241 47.1067 19.7632 47.581 19.7013 47.8877C19.547 48.6545 19.3691 49.159 19.4624 49.5626" stroke="white" stroke-width="2" stroke-linecap="round"/>
</g>
<g opacity="0.5">
<path d="M43.2842 44.6C43.7192 43.025 45.2402 41.9 46.9922 42.086C48.6602 42.263 49.9862 43.67 50.0702 45.344C50.0912 45.785 50.0312 46.208 49.9022 46.601C49.8242 46.841 49.5902 47 49.3352 47H40.4006C38.8862 47 37.7504 45.6143 38.0474 44.1293L39.8732 35H43.4732L44.6732 37.1L42.1022 38.939L41.3732 38" fill="white"/>
<path d="M43.2842 44.6C43.7192 43.025 45.2402 41.9 46.9922 42.086C48.6602 42.263 49.9862 43.67 50.0702 45.344C50.0912 45.785 50.0312 46.208 49.9022 46.601C49.8242 46.841 49.5902 47 49.3352 47H40.4006C38.8862 47 37.7504 45.6143 38.0474 44.1293L39.8732 35H43.4732L44.6732 37.1L42.1022 38.939L41.3732 38M42.1052 38.939L43.4732 44Z" fill="#FFEC45"/>
<path d="M43.2842 44.6C43.7192 43.025 45.2402 41.9 46.9922 42.086C48.6602 42.263 49.9862 43.67 50.0702 45.344C50.0912 45.785 50.0312 46.208 49.9022 46.601C49.8242 46.841 49.5902 47 49.3352 47H40.4006C38.8862 47 37.7504 45.6143 38.0474 44.1293L39.8732 35H43.4732L44.6732 37.1L42.1022 38.939L41.3732 38M42.1052 38.939L43.4732 44" stroke="white" stroke-width="2" stroke-miterlimit="2" stroke-linecap="round" stroke-linejoin="round"/>
</g>
<g opacity="0.5">
<path d="M159.733 42.6623C160.573 41.2606 162.339 40.5826 163.978 41.2296C165.538 41.8455 166.44 43.5554 166.074 45.1911C165.977 45.6217 165.806 46.0133 165.577 46.3576C165.437 46.5681 165.17 46.6588 164.924 46.5907L156.313 44.2053C154.854 43.801 154.129 42.1624 154.812 40.8106L159.009 32.5001L162.478 33.4613L163.074 35.8054L160.105 36.8912L159.654 35.7917" fill="white"/>
<path d="M159.733 42.6623C160.573 41.2606 162.339 40.5826 163.978 41.2296C165.538 41.8455 166.44 43.5554 166.074 45.1911C165.977 45.6217 165.806 46.0133 165.577 46.3576C165.437 46.5681 165.17 46.6588 164.924 46.5907L156.313 44.2053C154.854 43.801 154.129 42.1624 154.812 40.8106L159.009 32.5001L162.478 33.4613L163.074 35.8054L160.105 36.8912L159.654 35.7917M160.108 36.892L160.075 42.1346Z" fill="#FFEC45"/>
<path d="M159.733 42.6623C160.573 41.2606 162.339 40.5826 163.978 41.2296C165.538 41.8455 166.44 43.5554 166.074 45.1911C165.977 45.6217 165.806 46.0133 165.577 46.3576C165.437 46.5681 165.17 46.6588 164.924 46.5907L156.313 44.2053C154.854 43.801 154.129 42.1624 154.812 40.8106L159.009 32.5001L162.478 33.4613L163.074 35.8054L160.105 36.8912L159.654 35.7917M160.108 36.892L160.075 42.1346" stroke="white" stroke-width="2" stroke-miterlimit="2" stroke-linecap="round" stroke-linejoin="round"/>
</g>
<g opacity="0.5">
<path d="M189.893 15.5853C189.61 13.976 190.501 12.3071 192.163 11.723C193.746 11.1669 195.547 11.8685 196.342 13.3444C196.55 13.7337 196.677 14.1415 196.73 14.5518C196.762 14.8021 196.619 15.0461 196.389 15.1556L188.319 18.9907C186.951 19.6407 185.331 18.8767 184.962 17.408L182.692 8.3788L185.943 6.83353L187.929 8.21514L186.396 10.9797L185.334 10.4445" fill="white"/>
<path d="M189.893 15.5853C189.61 13.976 190.501 12.3071 192.163 11.723C193.746 11.1669 195.547 11.8685 196.342 13.3444C196.55 13.7337 196.677 14.1415 196.73 14.5518C196.762 14.8021 196.619 15.0461 196.389 15.1556L188.319 18.9907C186.951 19.6407 185.331 18.8767 184.962 17.408L182.692 8.3788L185.943 6.83353L187.929 8.21514L186.396 10.9797L185.334 10.4445M186.399 10.9784L189.807 14.9622Z" fill="#FFEC45"/>
<path d="M189.893 15.5853C189.61 13.976 190.501 12.3071 192.163 11.723C193.746 11.1669 195.547 11.8685 196.342 13.3444C196.55 13.7337 196.677 14.1415 196.73 14.5518C196.762 14.8021 196.619 15.0461 196.389 15.1556L188.319 18.9907C186.951 19.6407 185.331 18.8767 184.962 17.408L182.692 8.3788L185.943 6.83353L187.929 8.21514L186.396 10.9797L185.334 10.4445M186.399 10.9784L189.807 14.9622" stroke="white" stroke-width="2" stroke-miterlimit="2" stroke-linecap="round" stroke-linejoin="round"/>
</g>
<g opacity="0.5">
<path d="M104.74 11.5005C104.463 10.3445 105.036 9.09344 106.217 8.59604C107.342 8.12243 108.681 8.55236 109.323 9.58891C109.491 9.86238 109.602 10.1529 109.658 10.4485C109.692 10.6287 109.599 10.8123 109.437 10.9019L103.747 14.0425C102.783 14.5749 101.572 14.0916 101.239 13.0415L99.1929 6.5858L101.486 5.32034L102.988 6.2359L101.997 8.3108L101.203 7.96906" fill="white"/>
<path d="M104.74 11.5005C104.463 10.3445 105.036 9.09344 106.217 8.59604C107.342 8.12243 108.681 8.55236 109.323 9.58891C109.491 9.86238 109.602 10.1529 109.658 10.4485C109.692 10.6287 109.599 10.8123 109.437 10.9019L103.747 14.0425C102.783 14.5749 101.572 14.0916 101.239 13.0415L99.1929 6.5858L101.486 5.32034L102.988 6.2359L101.997 8.3108L101.203 7.96906M101.999 8.30974L104.649 11.0519Z" fill="#FFEC45"/>
<path d="M104.74 11.5005C104.463 10.3445 105.036 9.09344 106.217 8.59604C107.342 8.12243 108.681 8.55236 109.323 9.58891C109.491 9.86238 109.602 10.1529 109.658 10.4485C109.692 10.6287 109.599 10.8123 109.437 10.9019L103.747 14.0425C102.783 14.5749 101.572 14.0916 101.239 13.0415L99.1929 6.5858L101.486 5.32034L102.988 6.2359L101.997 8.3108L101.203 7.96906M101.999 8.30974L104.649 11.0519" stroke="white" stroke-width="2" stroke-miterlimit="2" stroke-linecap="round" stroke-linejoin="round"/>
</g>
<g filter="url(#filter1_d_2012_532)">
<mask id="path-44-outside-1_2012_532" maskUnits="userSpaceOnUse" x="23" y="7" width="155" height="28" fill="black">
<rect fill="white" x="23" y="7" width="155" height="28"/>
<path d="M37.232 11.392V28H33.704V14.152H28.28V28H24.752V11.392H37.232ZM47.5518 14.896C49.1518 14.896 50.3358 15.488 51.1038 16.672C51.8878 17.84 52.2798 19.488 52.2798 21.616C52.2798 22.912 52.0798 24.072 51.6798 25.096C51.2798 26.12 50.6958 26.928 49.9278 27.52C49.1758 28.096 48.2798 28.384 47.2398 28.384C45.9438 28.384 44.8958 27.928 44.0958 27.016V32.896L40.6878 33.28V15.28H43.6878L43.8558 16.768C44.3358 16.144 44.8958 15.68 45.5358 15.376C46.1918 15.056 46.8638 14.896 47.5518 14.896ZM46.2318 25.84C47.8958 25.84 48.7278 24.44 48.7278 21.64C48.7278 20.104 48.5438 19.016 48.1758 18.376C47.8078 17.736 47.2478 17.416 46.4958 17.416C46.0158 17.416 45.5678 17.568 45.1518 17.872C44.7518 18.16 44.3998 18.552 44.0958 19.048V24.592C44.6398 25.424 45.3518 25.84 46.2318 25.84ZM60.3367 14.896C62.2407 14.896 63.7287 15.496 64.8007 16.696C65.8727 17.88 66.4087 19.528 66.4087 21.64C66.4087 22.984 66.1607 24.168 65.6647 25.192C65.1847 26.2 64.4807 26.984 63.5527 27.544C62.6407 28.104 61.5607 28.384 60.3127 28.384C58.4087 28.384 56.9127 27.792 55.8247 26.608C54.7527 25.408 54.2167 23.752 54.2167 21.64C54.2167 20.296 54.4567 19.12 54.9367 18.112C55.4327 17.088 56.1367 16.296 57.0487 15.736C57.9767 15.176 59.0727 14.896 60.3367 14.896ZM60.3367 17.44C59.4727 17.44 58.8247 17.784 58.3927 18.472C57.9767 19.144 57.7687 20.2 57.7687 21.64C57.7687 23.08 57.9767 24.144 58.3927 24.832C58.8247 25.504 59.4647 25.84 60.3127 25.84C61.1607 25.84 61.7927 25.504 62.2087 24.832C62.6407 24.144 62.8567 23.08 62.8567 21.64C62.8567 20.2 62.6487 19.144 62.2327 18.472C61.8167 17.784 61.1847 17.44 60.3367 17.44ZM80.0219 25.456V31.888H77.5979L77.1899 28H69.9179L69.5099 31.888H67.0859V25.456H67.9019C68.2059 25.232 68.4539 24.96 68.6459 24.64C68.8539 24.32 69.0379 23.776 69.1979 23.008C69.3579 22.24 69.4939 21.136 69.6059 19.696L69.9419 15.28H78.6779V25.456H80.0219ZM75.4619 17.608H72.8939L72.7499 19.36C72.6379 20.704 72.4939 21.768 72.3179 22.552C72.1579 23.32 71.9339 23.928 71.6459 24.376C71.3739 24.808 70.9979 25.168 70.5179 25.456H75.4619V17.608ZM89.6619 21.04C91.8219 21.28 92.9019 22.304 92.9019 24.112C92.9019 25.424 92.3979 26.4 91.3899 27.04C90.3819 27.68 89.0139 28 87.2859 28H82.1019V15.424C83.8939 15.072 85.5019 14.896 86.9259 14.896C88.6059 14.896 89.9259 15.192 90.8859 15.784C91.8459 16.36 92.3259 17.216 92.3259 18.352C92.3259 19.072 92.0939 19.664 91.6299 20.128C91.1819 20.576 90.5259 20.88 89.6619 21.04ZM86.8779 17.152C86.4459 17.152 85.9899 17.176 85.5099 17.224V20.296H87.0939C87.6699 20.296 88.1179 20.168 88.4379 19.912C88.7739 19.656 88.9419 19.256 88.9419 18.712C88.9419 18.184 88.7659 17.792 88.4139 17.536C88.0779 17.28 87.5659 17.152 86.8779 17.152ZM87.2139 25.696C88.6699 25.696 89.3979 25.088 89.3979 23.872C89.3979 23.312 89.2219 22.896 88.8699 22.624C88.5339 22.352 87.9899 22.216 87.2379 22.216H85.5099V25.696H87.2139ZM106.357 28H103.093V23.176C103.093 22.264 103.141 21.4 103.237 20.584C103.333 19.768 103.437 19.12 103.549 18.64L99.0367 28H95.4847V15.28H98.7487V20.152C98.7487 21.016 98.7007 21.872 98.6047 22.72C98.5247 23.552 98.4287 24.192 98.3167 24.64L102.757 15.28H106.357V28ZM117.055 28V22.816H113.119V28H109.711V15.28H113.119V20.248H117.055V15.28H120.463V28H117.055ZM130.373 28.024C129.861 29.64 129.053 30.888 127.949 31.768C126.861 32.648 125.381 33.152 123.509 33.28L123.149 30.832C124.365 30.672 125.253 30.384 125.813 29.968C126.389 29.552 126.861 28.896 127.229 28H126.053L122.093 15.28H125.717L128.261 25.792L130.949 15.28H134.477L130.373 28.024ZM145.75 15.28L145.318 17.848H141.718V28H138.31V17.848H134.494V15.28H145.75ZM151.553 19.264C153.569 19.264 155.041 19.64 155.969 20.392C156.913 21.128 157.385 22.208 157.385 23.632C157.385 25.056 156.889 26.144 155.897 26.896C154.921 27.632 153.649 28 152.081 28H147.305V15.28H150.713V19.264H151.553ZM158.657 15.28H162.065V28H158.657V15.28ZM151.745 25.696C153.169 25.696 153.881 24.992 153.881 23.584C153.881 22.88 153.705 22.36 153.353 22.024C153.001 21.688 152.393 21.52 151.529 21.52H150.713V25.696H151.745ZM176.294 28H173.03V23.176C173.03 22.264 173.078 21.4 173.174 20.584C173.27 19.768 173.374 19.12 173.486 18.64L168.974 28H165.422V15.28H168.686V20.152C168.686 21.016 168.638 21.872 168.542 22.72C168.462 23.552 168.366 24.192 168.254 24.64L172.694 15.28H176.294V28ZM170.846 12.76C169.678 12.76 168.742 12.448 168.038 11.824C167.334 11.184 166.934 10.336 166.838 9.28L168.782 8.92C168.926 9.432 169.158 9.8 169.478 10.024C169.814 10.248 170.27 10.36 170.846 10.36C171.406 10.36 171.854 10.248 172.19 10.024C172.526 9.8 172.774 9.432 172.934 8.92L174.878 9.28C174.782 10.336 174.374 11.184 173.654 11.824C172.95 12.448 172.014 12.76 170.846 12.76Z"/>
</mask>
<path d="M37.232 11.392V28H33.704V14.152H28.28V28H24.752V11.392H37.232ZM47.5518 14.896C49.1518 14.896 50.3358 15.488 51.1038 16.672C51.8878 17.84 52.2798 19.488 52.2798 21.616C52.2798 22.912 52.0798 24.072 51.6798 25.096C51.2798 26.12 50.6958 26.928 49.9278 27.52C49.1758 28.096 48.2798 28.384 47.2398 28.384C45.9438 28.384 44.8958 27.928 44.0958 27.016V32.896L40.6878 33.28V15.28H43.6878L43.8558 16.768C44.3358 16.144 44.8958 15.68 45.5358 15.376C46.1918 15.056 46.8638 14.896 47.5518 14.896ZM46.2318 25.84C47.8958 25.84 48.7278 24.44 48.7278 21.64C48.7278 20.104 48.5438 19.016 48.1758 18.376C47.8078 17.736 47.2478 17.416 46.4958 17.416C46.0158 17.416 45.5678 17.568 45.1518 17.872C44.7518 18.16 44.3998 18.552 44.0958 19.048V24.592C44.6398 25.424 45.3518 25.84 46.2318 25.84ZM60.3367 14.896C62.2407 14.896 63.7287 15.496 64.8007 16.696C65.8727 17.88 66.4087 19.528 66.4087 21.64C66.4087 22.984 66.1607 24.168 65.6647 25.192C65.1847 26.2 64.4807 26.984 63.5527 27.544C62.6407 28.104 61.5607 28.384 60.3127 28.384C58.4087 28.384 56.9127 27.792 55.8247 26.608C54.7527 25.408 54.2167 23.752 54.2167 21.64C54.2167 20.296 54.4567 19.12 54.9367 18.112C55.4327 17.088 56.1367 16.296 57.0487 15.736C57.9767 15.176 59.0727 14.896 60.3367 14.896ZM60.3367 17.44C59.4727 17.44 58.8247 17.784 58.3927 18.472C57.9767 19.144 57.7687 20.2 57.7687 21.64C57.7687 23.08 57.9767 24.144 58.3927 24.832C58.8247 25.504 59.4647 25.84 60.3127 25.84C61.1607 25.84 61.7927 25.504 62.2087 24.832C62.6407 24.144 62.8567 23.08 62.8567 21.64C62.8567 20.2 62.6487 19.144 62.2327 18.472C61.8167 17.784 61.1847 17.44 60.3367 17.44ZM80.0219 25.456V31.888H77.5979L77.1899 28H69.9179L69.5099 31.888H67.0859V25.456H67.9019C68.2059 25.232 68.4539 24.96 68.6459 24.64C68.8539 24.32 69.0379 23.776 69.1979 23.008C69.3579 22.24 69.4939 21.136 69.6059 19.696L69.9419 15.28H78.6779V25.456H80.0219ZM75.4619 17.608H72.8939L72.7499 19.36C72.6379 20.704 72.4939 21.768 72.3179 22.552C72.1579 23.32 71.9339 23.928 71.6459 24.376C71.3739 24.808 70.9979 25.168 70.5179 25.456H75.4619V17.608ZM89.6619 21.04C91.8219 21.28 92.9019 22.304 92.9019 24.112C92.9019 25.424 92.3979 26.4 91.3899 27.04C90.3819 27.68 89.0139 28 87.2859 28H82.1019V15.424C83.8939 15.072 85.5019 14.896 86.9259 14.896C88.6059 14.896 89.9259 15.192 90.8859 15.784C91.8459 16.36 92.3259 17.216 92.3259 18.352C92.3259 19.072 92.0939 19.664 91.6299 20.128C91.1819 20.576 90.5259 20.88 89.6619 21.04ZM86.8779 17.152C86.4459 17.152 85.9899 17.176 85.5099 17.224V20.296H87.0939C87.6699 20.296 88.1179 20.168 88.4379 19.912C88.7739 19.656 88.9419 19.256 88.9419 18.712C88.9419 18.184 88.7659 17.792 88.4139 17.536C88.0779 17.28 87.5659 17.152 86.8779 17.152ZM87.2139 25.696C88.6699 25.696 89.3979 25.088 89.3979 23.872C89.3979 23.312 89.2219 22.896 88.8699 22.624C88.5339 22.352 87.9899 22.216 87.2379 22.216H85.5099V25.696H87.2139ZM106.357 28H103.093V23.176C103.093 22.264 103.141 21.4 103.237 20.584C103.333 19.768 103.437 19.12 103.549 18.64L99.0367 28H95.4847V15.28H98.7487V20.152C98.7487 21.016 98.7007 21.872 98.6047 22.72C98.5247 23.552 98.4287 24.192 98.3167 24.64L102.757 15.28H106.357V28ZM117.055 28V22.816H113.119V28H109.711V15.28H113.119V20.248H117.055V15.28H120.463V28H117.055ZM130.373 28.024C129.861 29.64 129.053 30.888 127.949 31.768C126.861 32.648 125.381 33.152 123.509 33.28L123.149 30.832C124.365 30.672 125.253 30.384 125.813 29.968C126.389 29.552 126.861 28.896 127.229 28H126.053L122.093 15.28H125.717L128.261 25.792L130.949 15.28H134.477L130.373 28.024ZM145.75 15.28L145.318 17.848H141.718V28H138.31V17.848H134.494V15.28H145.75ZM151.553 19.264C153.569 19.264 155.041 19.64 155.969 20.392C156.913 21.128 157.385 22.208 157.385 23.632C157.385 25.056 156.889 26.144 155.897 26.896C154.921 27.632 153.649 28 152.081 28H147.305V15.28H150.713V19.264H151.553ZM158.657 15.28H162.065V28H158.657V15.28ZM151.745 25.696C153.169 25.696 153.881 24.992 153.881 23.584C153.881 22.88 153.705 22.36 153.353 22.024C153.001 21.688 152.393 21.52 151.529 21.52H150.713V25.696H151.745ZM176.294 28H173.03V23.176C173.03 22.264 173.078 21.4 173.174 20.584C173.27 19.768 173.374 19.12 173.486 18.64L168.974 28H165.422V15.28H168.686V20.152C168.686 21.016 168.638 21.872 168.542 22.72C168.462 23.552 168.366 24.192 168.254 24.64L172.694 15.28H176.294V28ZM170.846 12.76C169.678 12.76 168.742 12.448 168.038 11.824C167.334 11.184 166.934 10.336 166.838 9.28L168.782 8.92C168.926 9.432 169.158 9.8 169.478 10.024C169.814 10.248 170.27 10.36 170.846 10.36C171.406 10.36 171.854 10.248 172.19 10.024C172.526 9.8 172.774 9.432 172.934 8.92L174.878 9.28C174.782 10.336 174.374 11.184 173.654 11.824C172.95 12.448 172.014 12.76 170.846 12.76Z" fill="white" shape-rendering="crispEdges"/>
<path d="M37.232 11.392H38.232V10.392H37.232V11.392ZM37.232 28V29H38.232V28H37.232ZM33.704 28H32.704V29H33.704V28ZM33.704 14.152H34.704V13.152H33.704V14.152ZM28.28 14.152V13.152H27.28V14.152H28.28ZM28.28 28V29H29.28V28H28.28ZM24.752 28H23.752V29H24.752V28ZM24.752 11.392V10.392H23.752V11.392H24.752ZM37.232 11.392H36.232V28H37.232H38.232V11.392H37.232ZM37.232 28V27H33.704V28V29H37.232V28ZM33.704 28H34.704V14.152H33.704H32.704V28H33.704ZM33.704 14.152V13.152H28.28V14.152V15.152H33.704V14.152ZM28.28 14.152H27.28V28H28.28H29.28V14.152H28.28ZM28.28 28V27H24.752V28V29H28.28V28ZM24.752 28H25.752V11.392H24.752H23.752V28H24.752ZM24.752 11.392V12.392H37.232V11.392V10.392H24.752V11.392ZM51.1038 16.672L50.2649 17.2162L50.2691 17.2228L50.2735 17.2293L51.1038 16.672ZM51.6798 25.096L50.7484 24.7321L50.7484 24.7321L51.6798 25.096ZM49.9278 27.52L50.5359 28.3139L50.5383 28.312L49.9278 27.52ZM44.0958 27.016L44.8476 26.3566L43.0958 24.3596V27.016H44.0958ZM44.0958 32.896L44.2078 33.8897L45.0958 33.7897V32.896H44.0958ZM40.6878 33.28H39.6878V34.399L40.7998 34.2737L40.6878 33.28ZM40.6878 15.28V14.28H39.6878V15.28H40.6878ZM43.6878 15.28L44.6815 15.1678L44.5813 14.28H43.6878V15.28ZM43.8558 16.768L42.8621 16.8802L43.1397 19.339L44.6484 17.3777L43.8558 16.768ZM45.5358 15.376L45.9649 16.2793L45.9742 16.2748L45.5358 15.376ZM45.1518 17.872L45.7361 18.6836L45.7418 18.6794L45.1518 17.872ZM44.0958 19.048L43.2432 18.5254L43.0958 18.7659V19.048H44.0958ZM44.0958 24.592H43.0958V24.8899L43.2588 25.1392L44.0958 24.592ZM47.5518 14.896V15.896C48.8663 15.896 49.7085 16.3584 50.2649 17.2162L51.1038 16.672L51.9428 16.1278C50.9632 14.6176 49.4374 13.896 47.5518 13.896V14.896ZM51.1038 16.672L50.2735 17.2293C50.9036 18.1681 51.2798 19.5913 51.2798 21.616H52.2798H53.2798C53.2798 19.3847 52.872 17.5119 51.9341 16.1147L51.1038 16.672ZM52.2798 21.616H51.2798C51.2798 22.8093 51.0957 23.8428 50.7484 24.7321L51.6798 25.096L52.6113 25.4599C53.0639 24.3012 53.2798 23.0147 53.2798 21.616H52.2798ZM51.6798 25.096L50.7484 24.7321C50.4054 25.6101 49.9229 26.2611 49.3173 26.728L49.9278 27.52L50.5383 28.312C51.4687 27.5949 52.1542 26.6299 52.6113 25.4599L51.6798 25.096ZM49.9278 27.52L49.3197 26.7261C48.7595 27.1552 48.0828 27.384 47.2398 27.384V28.384V29.384C48.4769 29.384 49.5921 29.0368 50.5359 28.3139L49.9278 27.52ZM47.2398 28.384V27.384C46.2095 27.384 45.4435 27.0359 44.8476 26.3566L44.0958 27.016L43.3441 27.6754C44.3481 28.8201 45.6781 29.384 47.2398 29.384V28.384ZM44.0958 27.016H43.0958V32.896H44.0958H45.0958V27.016H44.0958ZM44.0958 32.896L43.9838 31.9023L40.5758 32.2863L40.6878 33.28L40.7998 34.2737L44.2078 33.8897L44.0958 32.896ZM40.6878 33.28H41.6878V15.28H40.6878H39.6878V33.28H40.6878ZM40.6878 15.28V16.28H43.6878V15.28V14.28H40.6878V15.28ZM43.6878 15.28L42.6941 15.3922L42.8621 16.8802L43.8558 16.768L44.8495 16.6558L44.6815 15.1678L43.6878 15.28ZM43.8558 16.768L44.6484 17.3777C45.043 16.8648 45.4828 16.5083 45.9649 16.2793L45.5358 15.376L45.1068 14.4727C44.3088 14.8517 43.6286 15.4232 43.0632 16.1583L43.8558 16.768ZM45.5358 15.376L45.9742 16.2748C46.5022 16.0172 47.0249 15.896 47.5518 15.896V14.896V13.896C46.7027 13.896 45.8814 14.0948 45.0974 14.4772L45.5358 15.376ZM46.2318 25.84V26.84C47.4071 26.84 48.3625 26.3122 48.9635 25.3009C49.5158 24.3715 49.7278 23.1064 49.7278 21.64H48.7278H47.7278C47.7278 22.9736 47.5239 23.8085 47.2442 24.2791C47.0132 24.6678 46.7205 24.84 46.2318 24.84V25.84ZM48.7278 21.64H49.7278C49.7278 20.0803 49.5508 18.7612 49.0427 17.8775L48.1758 18.376L47.3089 18.8745C47.5368 19.2708 47.7278 20.1277 47.7278 21.64H48.7278ZM48.1758 18.376L49.0427 17.8775C48.4922 16.9202 47.5975 16.416 46.4958 16.416V17.416V18.416C46.8982 18.416 47.1234 18.5518 47.3089 18.8745L48.1758 18.376ZM46.4958 17.416V16.416C45.7878 16.416 45.1357 16.6452 44.5618 17.0646L45.1518 17.872L45.7418 18.6794C45.9999 18.4908 46.2439 18.416 46.4958 18.416V17.416ZM45.1518 17.872L44.5675 17.0605C44.0422 17.4387 43.6043 17.9363 43.2432 18.5254L44.0958 19.048L44.9484 19.5706C45.1954 19.1677 45.4614 18.8813 45.7361 18.6835L45.1518 17.872ZM44.0958 19.048H43.0958V24.592H44.0958H45.0958V19.048H44.0958ZM44.0958 24.592L43.2588 25.1392C43.9594 26.2107 44.9659 26.84 46.2318 26.84V25.84V24.84C45.7377 24.84 45.3202 24.6373 44.9328 24.0448L44.0958 24.592ZM64.8007 16.696L64.0549 17.3622L64.0594 17.3672L64.8007 16.696ZM65.6647 25.192L64.7647 24.7561L64.7618 24.7621L65.6647 25.192ZM63.5527 27.544L63.036 26.6878L63.0294 26.6918L63.5527 27.544ZM55.8247 26.608L55.0789 27.2743L55.0884 27.2846L55.8247 26.608ZM54.9367 18.112L54.0367 17.6761L54.0338 17.6821L54.9367 18.112ZM57.0487 15.736L56.532 14.8798L56.5254 14.8838L57.0487 15.736ZM58.3927 18.472L57.5458 17.9402L57.5424 17.9456L58.3927 18.472ZM58.3927 24.832L57.537 25.3494L57.5441 25.3612L57.5515 25.3728L58.3927 24.832ZM62.2087 24.832L61.3618 24.3002L61.3584 24.3056L62.2087 24.832ZM62.2327 18.472L61.3769 18.9894L61.3824 18.9984L62.2327 18.472ZM60.3367 14.896V15.896C62.0131 15.896 63.2077 16.4138 64.0549 17.3622L64.8007 16.696L65.5464 16.0298C64.2497 14.5782 62.4683 13.896 60.3367 13.896V14.896ZM64.8007 16.696L64.0594 17.3672C64.9172 18.3146 65.4087 19.6944 65.4087 21.64H66.4087H67.4087C67.4087 19.3616 66.8282 17.4454 65.542 16.0248L64.8007 16.696ZM66.4087 21.64H65.4087C65.4087 22.8602 65.184 23.8905 64.7647 24.7561L65.6647 25.192L66.5647 25.6279C67.1374 24.4455 67.4087 23.1078 67.4087 21.64H66.4087ZM65.6647 25.192L64.7618 24.7621C64.3634 25.5989 63.7911 26.2322 63.036 26.6878L63.5527 27.544L64.0694 28.4002C65.1703 27.7358 66.006 26.8011 66.5675 25.6219L65.6647 25.192ZM63.5527 27.544L63.0294 26.6918C62.2994 27.1401 61.4071 27.384 60.3127 27.384V28.384V29.384C61.7143 29.384 62.9819 29.0679 64.076 28.3962L63.5527 27.544ZM60.3127 28.384V27.384C58.6324 27.384 57.4247 26.8713 56.561 25.9314L55.8247 26.608L55.0884 27.2846C56.4006 28.7127 58.1849 29.384 60.3127 29.384V28.384ZM55.8247 26.608L56.5704 25.9418C55.7078 24.9762 55.2167 23.5847 55.2167 21.64H54.2167H53.2167C53.2167 23.9193 53.7975 25.8398 55.0789 27.2742L55.8247 26.608ZM54.2167 21.64H55.2167C55.2167 20.4149 55.4352 19.391 55.8395 18.5419L54.9367 18.112L54.0338 17.6821C53.4782 18.849 53.2167 20.1771 53.2167 21.64H54.2167ZM54.9367 18.112L55.8367 18.5479C56.2549 17.6844 56.8331 17.0418 57.572 16.5882L57.0487 15.736L56.5254 14.8838C55.4402 15.5502 54.6105 16.4916 54.0367 17.6761L54.9367 18.112ZM57.0487 15.736L57.5654 16.5922C58.3131 16.141 59.2241 15.896 60.3367 15.896V14.896V13.896C58.9213 13.896 57.6403 14.211 56.532 14.8798L57.0487 15.736ZM60.3367 17.44V16.44C59.155 16.44 58.1743 16.9392 57.5458 17.9402L58.3927 18.472L59.2396 19.0038C59.475 18.6288 59.7904 18.44 60.3367 18.44V17.44ZM58.3927 18.472L57.5424 17.9456C56.977 18.8589 56.7687 20.1452 56.7687 21.64H57.7687H58.7687C58.7687 20.2548 58.9763 19.4291 59.243 18.9984L58.3927 18.472ZM57.7687 21.64H56.7687C56.7687 23.1379 56.9781 24.4252 57.537 25.3494L58.3927 24.832L59.2484 24.3146C58.9752 23.8628 58.7687 23.0221 58.7687 21.64H57.7687ZM58.3927 24.832L57.5515 25.3728C58.1807 26.3515 59.1495 26.84 60.3127 26.84V25.84V24.84C59.7798 24.84 59.4687 24.6565 59.2339 24.2912L58.3927 24.832ZM60.3127 25.84V26.84C61.4766 26.84 62.4452 26.3498 63.059 25.3584L62.2087 24.832L61.3584 24.3056C61.1402 24.6582 60.8448 24.84 60.3127 24.84V25.84ZM62.2087 24.832L63.0556 25.3638C63.6384 24.4355 63.8567 23.1417 63.8567 21.64H62.8567H61.8567C61.8567 23.0183 61.643 23.8525 61.3618 24.3002L62.2087 24.832ZM62.8567 21.64H63.8567C63.8567 20.1452 63.6483 18.8589 63.083 17.9456L62.2327 18.472L61.3824 18.9984C61.649 19.4291 61.8567 20.2548 61.8567 21.64H62.8567ZM62.2327 18.472L63.0884 17.9546C62.4796 16.9476 61.5114 16.44 60.3367 16.44V17.44V18.44C60.8579 18.44 61.1538 18.6204 61.377 18.9894L62.2327 18.472ZM80.0219 25.456H81.0219V24.456H80.0219V25.456ZM80.0219 31.888V32.888H81.0219V31.888H80.0219ZM77.5979 31.888L76.6034 31.9924L76.6974 32.888H77.5979V31.888ZM77.1899 28L78.1845 27.8956L78.0905 27H77.1899V28ZM69.9179 28V27H69.0174L68.9234 27.8956L69.9179 28ZM69.5099 31.888V32.888H70.4105L70.5045 31.9924L69.5099 31.888ZM67.0859 31.888H66.0859V32.888H67.0859V31.888ZM67.0859 25.456V24.456H66.0859V25.456H67.0859ZM67.9019 25.456V26.456H68.2306L68.4951 26.2611L67.9019 25.456ZM68.6459 24.64L67.8075 24.095L67.7977 24.1101L67.7884 24.1255L68.6459 24.64ZM69.1979 23.008L70.1769 23.212L70.1769 23.212L69.1979 23.008ZM69.6059 19.696L70.6029 19.7735L70.6031 19.7719L69.6059 19.696ZM69.9419 15.28V14.28H69.0151L68.9448 15.2041L69.9419 15.28ZM78.6779 15.28H79.6779V14.28H78.6779V15.28ZM78.6779 25.456H77.6779V26.456H78.6779V25.456ZM75.4619 17.608H76.4619V16.608H75.4619V17.608ZM72.8939 17.608V16.608H71.9728L71.8973 17.5261L72.8939 17.608ZM72.7499 19.36L73.7465 19.443L73.7466 19.4419L72.7499 19.36ZM72.3179 22.552L71.3422 22.333L71.3405 22.3405L71.339 22.348L72.3179 22.552ZM71.6459 24.376L70.8047 23.8352L70.7997 23.8432L71.6459 24.376ZM70.5179 25.456L70.0034 24.5985L66.9076 26.456H70.5179V25.456ZM75.4619 25.456V26.456H76.4619V25.456H75.4619ZM80.0219 25.456H79.0219V31.888H80.0219H81.0219V25.456H80.0219ZM80.0219 31.888V30.888H77.5979V31.888V32.888H80.0219V31.888ZM77.5979 31.888L78.5925 31.7836L78.1845 27.8956L77.1899 28L76.1954 28.1044L76.6034 31.9924L77.5979 31.888ZM77.1899 28V27H69.9179V28V29H77.1899V28ZM69.9179 28L68.9234 27.8956L68.5154 31.7836L69.5099 31.888L70.5045 31.9924L70.9125 28.1044L69.9179 28ZM69.5099 31.888V30.888H67.0859V31.888V32.888H69.5099V31.888ZM67.0859 31.888H68.0859V25.456H67.0859H66.0859V31.888H67.0859ZM67.0859 25.456V26.456H67.9019V25.456V24.456H67.0859V25.456ZM67.9019 25.456L68.4951 26.2611C68.9043 25.9596 69.2426 25.5892 69.5034 25.1545L68.6459 24.64L67.7884 24.1255C67.6653 24.3308 67.5076 24.5044 67.3087 24.6509L67.9019 25.456ZM68.6459 24.64L69.4844 25.185C69.7995 24.7001 70.0126 24.0006 70.1769 23.212L69.1979 23.008L68.219 22.804C68.0633 23.5514 67.9083 23.9399 67.8075 24.095L68.6459 24.64ZM69.1979 23.008L70.1769 23.212C70.35 22.3811 70.4899 21.2271 70.6029 19.7735L69.6059 19.696L68.6089 19.6185C68.498 21.0449 68.3659 22.0989 68.219 22.804L69.1979 23.008ZM69.6059 19.696L70.6031 19.7719L70.9391 15.3559L69.9419 15.28L68.9448 15.2041L68.6088 19.6201L69.6059 19.696ZM69.9419 15.28V16.28H78.6779V15.28V14.28H69.9419V15.28ZM78.6779 15.28H77.6779V25.456H78.6779H79.6779V15.28H78.6779ZM78.6779 25.456V26.456H80.0219V25.456V24.456H78.6779V25.456ZM75.4619 17.608V16.608H72.8939V17.608V18.608H75.4619V17.608ZM72.8939 17.608L71.8973 17.5261L71.7533 19.2781L72.7499 19.36L73.7466 19.4419L73.8906 17.6899L72.8939 17.608ZM72.7499 19.36L71.7534 19.277C71.643 20.6014 71.5037 21.6136 71.3422 22.333L72.3179 22.552L73.2937 22.771C73.4842 21.9224 73.6329 20.8066 73.7465 19.443L72.7499 19.36ZM72.3179 22.552L71.339 22.348C71.1932 23.0477 71.0032 23.5266 70.8048 23.8352L71.6459 24.376L72.4871 24.9168C72.8647 24.3294 73.1227 23.5923 73.2969 22.756L72.3179 22.552ZM71.6459 24.376L70.7997 23.8432C70.6191 24.13 70.3621 24.3833 70.0034 24.5985L70.5179 25.456L71.0324 26.3135C71.6337 25.9527 72.1288 25.486 72.4922 24.9088L71.6459 24.376ZM70.5179 25.456V26.456H75.4619V25.456V24.456H70.5179V25.456ZM75.4619 25.456H76.4619V17.608H75.4619H74.4619V25.456H75.4619ZM89.6619 21.04L89.4798 20.0567L89.5514 22.0339L89.6619 21.04ZM91.3899 27.04L90.8539 26.1958L90.8539 26.1958L91.3899 27.04ZM82.1019 28H81.1019V29H82.1019V28ZM82.1019 15.424L81.9091 14.4427L81.1019 14.6013V15.424H82.1019ZM90.8859 15.784L90.3609 16.6352L90.3714 16.6415L90.8859 15.784ZM85.5099 17.224L85.4104 16.229L84.5099 16.319V17.224H85.5099ZM85.5099 20.296H84.5099V21.296H85.5099V20.296ZM88.4379 19.912L87.8318 19.1166L87.8224 19.1237L87.8132 19.1311L88.4379 19.912ZM88.4139 17.536L87.8078 18.3314L87.8167 18.3382L87.8257 18.3447L88.4139 17.536ZM88.8699 22.624L88.2407 23.4012L88.2495 23.4084L88.2584 23.4153L88.8699 22.624ZM85.5099 22.216V21.216H84.5099V22.216H85.5099ZM85.5099 25.696H84.5099V26.696H85.5099V25.696ZM89.6619 21.04L89.5514 22.0339C90.5107 22.1405 91.08 22.4067 91.4038 22.7137C91.7029 22.9973 91.9019 23.4191 91.9019 24.112H92.9019H93.9019C93.9019 22.9969 93.5608 22.0027 92.7799 21.2623C92.0237 20.5453 90.9731 20.1795 89.7723 20.0461L89.6619 21.04ZM92.9019 24.112H91.9019C91.9019 25.122 91.5405 25.7598 90.8539 26.1958L91.3899 27.04L91.9259 27.8842C93.2553 27.0402 93.9019 25.726 93.9019 24.112H92.9019ZM91.3899 27.04L90.8539 26.1958C90.0626 26.6982 88.9044 27 87.2859 27V28V29C89.1233 29 90.7011 28.6618 91.9259 27.8842L91.3899 27.04ZM87.2859 28V27H82.1019V28V29H87.2859V28ZM82.1019 28H83.1019V15.424H82.1019H81.1019V28H82.1019ZM82.1019 15.424L82.2946 16.4052C84.0399 16.0624 85.5817 15.896 86.9259 15.896V14.896V13.896C85.422 13.896 83.7478 14.0816 81.9091 14.4427L82.1019 15.424ZM86.9259 14.896V15.896C88.5052 15.896 89.618 16.177 90.361 16.6352L90.8859 15.784L91.4108 14.9328C90.2338 14.207 88.7065 13.896 86.9259 13.896V14.896ZM90.8859 15.784L90.3714 16.6415C91.0248 17.0335 91.3259 17.5609 91.3259 18.352H92.3259H93.3259C93.3259 16.8711 92.667 15.6865 91.4004 14.9265L90.8859 15.784ZM92.3259 18.352H91.3259C91.3259 18.8351 91.1801 19.1636 90.9228 19.4209L91.6299 20.128L92.337 20.8351C93.0077 20.1644 93.3259 19.3089 93.3259 18.352H92.3259ZM91.6299 20.128L90.9228 19.4209C90.6634 19.6802 90.2195 19.9197 89.4798 20.0567L89.6619 21.04L89.844 22.0233C90.8323 21.8403 91.7003 21.4718 92.337 20.8351L91.6299 20.128ZM86.8779 17.152V16.152C86.4091 16.152 85.9197 16.178 85.4104 16.229L85.5099 17.224L85.6094 18.219C86.0601 18.174 86.4827 18.152 86.8779 18.152V17.152ZM85.5099 17.224H84.5099V20.296H85.5099H86.5099V17.224H85.5099ZM85.5099 20.296V21.296H87.0939V20.296V19.296H85.5099V20.296ZM87.0939 20.296V21.296C87.8065 21.296 88.5056 21.1384 89.0626 20.6929L88.4379 19.912L87.8132 19.1311C87.7301 19.1976 87.5332 19.296 87.0939 19.296V20.296ZM88.4379 19.912L89.0439 20.7074C89.6971 20.2097 89.9419 19.4697 89.9419 18.712H88.9419H87.9419C87.9419 19.0423 87.8506 19.1023 87.8318 19.1166L88.4379 19.912ZM88.9419 18.712H89.9419C89.9419 17.9409 89.6692 17.2125 89.002 16.7273L88.4139 17.536L87.8257 18.3447C87.8625 18.3715 87.9419 18.4271 87.9419 18.712H88.9419ZM88.4139 17.536L89.0199 16.7406C88.4304 16.2914 87.6581 16.152 86.8779 16.152V17.152V18.152C87.4737 18.152 87.7253 18.2686 87.8078 18.3314L88.4139 17.536ZM87.2139 25.696V26.696C88.0565 26.696 88.8747 26.5238 89.4929 26.0075C90.1456 25.4624 90.3979 24.6862 90.3979 23.872H89.3979H88.3979C88.3979 24.2738 88.2862 24.4096 88.2109 24.4725C88.101 24.5642 87.8272 24.696 87.2139 24.696V25.696ZM89.3979 23.872H90.3979C90.3979 23.0905 90.1406 22.3422 89.4813 21.8327L88.8699 22.624L88.2584 23.4153C88.3031 23.4498 88.3979 23.5335 88.3979 23.872H89.3979ZM88.8699 22.624L89.4991 21.8468C88.8945 21.3574 88.0662 21.216 87.2379 21.216V22.216V23.216C87.9135 23.216 88.1732 23.3466 88.2407 23.4012L88.8699 22.624ZM87.2379 22.216V21.216H85.5099V22.216V23.216H87.2379V22.216ZM85.5099 22.216H84.5099V25.696H85.5099H86.5099V22.216H85.5099ZM85.5099 25.696V26.696H87.2139V25.696V24.696H85.5099V25.696ZM106.357 28V29H107.357V28H106.357ZM103.093 28H102.093V29H103.093V28ZM103.237 20.584L102.244 20.4672L102.244 20.4672L103.237 20.584ZM103.549 18.64L104.523 18.8672L102.648 18.2058L103.549 18.64ZM99.0367 28V29H99.6648L99.9375 28.4342L99.0367 28ZM95.4847 28H94.4847V29H95.4847V28ZM95.4847 15.28V14.28H94.4847V15.28H95.4847ZM98.7487 15.28H99.7487V14.28H98.7487V15.28ZM98.6047 22.72L97.611 22.6075L97.6101 22.6159L97.6093 22.6243L98.6047 22.72ZM98.3167 24.64L97.3465 24.3975L99.2202 25.0686L98.3167 24.64ZM102.757 15.28V14.28H102.124L101.853 14.8514L102.757 15.28ZM106.357 15.28H107.357V14.28H106.357V15.28ZM106.357 28V27H103.093V28V29H106.357V28ZM103.093 28H104.093V23.176H103.093H102.093V28H103.093ZM103.093 23.176H104.093C104.093 22.2989 104.139 21.4741 104.23 20.7008L103.237 20.584L102.244 20.4672C102.143 21.3259 102.093 22.2291 102.093 23.176H103.093ZM103.237 20.584L104.23 20.7008C104.324 19.901 104.423 19.2949 104.523 18.8672L103.549 18.64L102.575 18.4128C102.451 18.9451 102.341 19.635 102.244 20.4672L103.237 20.584ZM103.549 18.64L102.648 18.2058L98.1359 27.5658L99.0367 28L99.9375 28.4342L104.449 19.0742L103.549 18.64ZM99.0367 28V27H95.4847V28V29H99.0367V28ZM95.4847 28H96.4847V15.28H95.4847H94.4847V28H95.4847ZM95.4847 15.28V16.28H98.7487V15.28V14.28H95.4847V15.28ZM98.7487 15.28H97.7487V20.152H98.7487H99.7487V15.28H98.7487ZM98.7487 20.152H97.7487C97.7487 20.9789 97.7028 21.7973 97.611 22.6075L98.6047 22.72L99.5983 22.8325C99.6986 21.9467 99.7487 21.0531 99.7487 20.152H98.7487ZM98.6047 22.72L97.6093 22.6243C97.5309 23.4396 97.4405 24.0216 97.3465 24.3975L98.3167 24.64L99.2868 24.8825C99.4169 24.3624 99.5185 23.6644 99.6001 22.8157L98.6047 22.72ZM98.3167 24.64L99.2202 25.0686L103.66 15.7086L102.757 15.28L101.853 14.8514L97.4132 24.2114L98.3167 24.64ZM102.757 15.28V16.28H106.357V15.28V14.28H102.757V15.28ZM106.357 15.28H105.357V28H106.357H107.357V15.28H106.357ZM117.055 28H116.055V29H117.055V28ZM117.055 22.816H118.055V21.816H117.055V22.816ZM113.119 22.816V21.816H112.119V22.816H113.119ZM113.119 28V29H114.119V28H113.119ZM109.711 28H108.711V29H109.711V28ZM109.711 15.28V14.28H108.711V15.28H109.711ZM113.119 15.28H114.119V14.28H113.119V15.28ZM113.119 20.248H112.119V21.248H113.119V20.248ZM117.055 20.248V21.248H118.055V20.248H117.055ZM117.055 15.28V14.28H116.055V15.28H117.055ZM120.463 15.28H121.463V14.28H120.463V15.28ZM120.463 28V29H121.463V28H120.463ZM117.055 28H118.055V22.816H117.055H116.055V28H117.055ZM117.055 22.816V21.816H113.119V22.816V23.816H117.055V22.816ZM113.119 22.816H112.119V28H113.119H114.119V22.816H113.119ZM113.119 28V27H109.711V28V29H113.119V28ZM109.711 28H110.711V15.28H109.711H108.711V28H109.711ZM109.711 15.28V16.28H113.119V15.28V14.28H109.711V15.28ZM113.119 15.28H112.119V20.248H113.119H114.119V15.28H113.119ZM113.119 20.248V21.248H117.055V20.248V19.248H113.119V20.248ZM117.055 20.248H118.055V15.28H117.055H116.055V20.248H117.055ZM117.055 15.28V16.28H120.463V15.28V14.28H117.055V15.28ZM120.463 15.28H119.463V28H120.463H121.463V15.28H120.463ZM120.463 28V27H117.055V28V29H120.463V28ZM130.373 28.024L129.421 27.7175L129.419 27.722L130.373 28.024ZM127.949 31.768L127.325 30.986L127.32 30.9905L127.949 31.768ZM123.509 33.28L122.519 33.4255L122.654 34.3408L123.577 34.2777L123.509 33.28ZM123.149 30.832L123.018 29.8405L122.012 29.973L122.159 30.9775L123.149 30.832ZM125.813 29.968L125.227 29.1572L125.216 29.1653L125.813 29.968ZM127.229 28L128.154 28.3799L128.72 27H127.229V28ZM126.053 28L125.098 28.2972L125.317 29H126.053V28ZM122.093 15.28V14.28H120.734L121.138 15.5772L122.093 15.28ZM125.717 15.28L126.689 15.0448L126.503 14.28H125.717V15.28ZM128.261 25.792L127.289 26.0272L129.229 26.0397L128.261 25.792ZM130.949 15.28V14.28H130.172L129.98 15.0323L130.949 15.28ZM134.477 15.28L135.428 15.5865L135.849 14.28H134.477V15.28ZM130.373 28.024L129.419 27.722C128.955 29.1873 128.245 30.2527 127.325 30.986L127.949 31.768L128.572 32.55C129.86 31.5233 130.766 30.0927 131.326 28.326L130.373 28.024ZM127.949 31.768L127.32 30.9905C126.438 31.7038 125.176 32.1637 123.44 32.2823L123.509 33.28L123.577 34.2777C125.585 34.1404 127.283 33.5922 128.577 32.5455L127.949 31.768ZM123.509 33.28L124.498 33.1345L124.138 30.6865L123.149 30.832L122.159 30.9775L122.519 33.4255L123.509 33.28ZM123.149 30.832L123.279 31.8235C124.553 31.6558 125.644 31.3387 126.409 30.7707L125.813 29.968L125.216 29.1653C124.861 29.4293 124.176 29.6882 123.018 29.8405L123.149 30.832ZM125.813 29.968L126.398 30.7787C127.171 30.2207 127.74 29.3879 128.154 28.3799L127.229 28L126.304 27.6201C125.982 28.4041 125.607 28.8833 125.227 29.1573L125.813 29.968ZM127.229 28V27H126.053V28V29H127.229V28ZM126.053 28L127.007 27.7028L123.047 14.9828L122.093 15.28L121.138 15.5772L125.098 28.2972L126.053 28ZM122.093 15.28V16.28H125.717V15.28V14.28H122.093V15.28ZM125.717 15.28L124.745 15.5152L127.289 26.0272L128.261 25.792L129.233 25.5568L126.689 15.0448L125.717 15.28ZM128.261 25.792L129.229 26.0397L131.917 15.5277L130.949 15.28L129.98 15.0323L127.292 25.5443L128.261 25.792ZM130.949 15.28V16.28H134.477V15.28V14.28H130.949V15.28ZM134.477 15.28L133.525 14.9735L129.421 27.7175L130.373 28.024L131.324 28.3305L135.428 15.5865L134.477 15.28ZM145.75 15.28L146.736 15.4459L146.932 14.28H145.75V15.28ZM145.318 17.848V18.848H146.164L146.304 18.0139L145.318 17.848ZM141.718 17.848V16.848H140.718V17.848H141.718ZM141.718 28V29H142.718V28H141.718ZM138.31 28H137.31V29H138.31V28ZM138.31 17.848H139.31V16.848H138.31V17.848ZM134.494 17.848H133.494V18.848H134.494V17.848ZM134.494 15.28V14.28H133.494V15.28H134.494ZM145.75 15.28L144.764 15.1141L144.332 17.6821L145.318 17.848L146.304 18.0139L146.736 15.4459L145.75 15.28ZM145.318 17.848V16.848H141.718V17.848V18.848H145.318V17.848ZM141.718 17.848H140.718V28H141.718H142.718V17.848H141.718ZM141.718 28V27H138.31V28V29H141.718V28ZM138.31 28H139.31V17.848H138.31H137.31V28H138.31ZM138.31 17.848V16.848H134.494V17.848V18.848H138.31V17.848ZM134.494 17.848H135.494V15.28H134.494H133.494V17.848H134.494ZM134.494 15.28V16.28H145.75V15.28V14.28H134.494V15.28ZM155.969 20.392L155.339 21.1689L155.347 21.1749L155.354 21.1806L155.969 20.392ZM155.897 26.896L156.499 27.6944L156.501 27.6929L155.897 26.896ZM147.305 28H146.305V29H147.305V28ZM147.305 15.28V14.28H146.305V15.28H147.305ZM150.713 15.28H151.713V14.28H150.713V15.28ZM150.713 19.264H149.713V20.264H150.713V19.264ZM158.657 15.28V14.28H157.657V15.28H158.657ZM162.065 15.28H163.065V14.28H162.065V15.28ZM162.065 28V29H163.065V28H162.065ZM158.657 28H157.657V29H158.657V28ZM153.353 22.024L154.043 21.3006L154.043 21.3006L153.353 22.024ZM150.713 21.52V20.52H149.713V21.52H150.713ZM150.713 25.696H149.713V26.696H150.713V25.696ZM151.553 19.264V20.264C153.484 20.264 154.676 20.6314 155.339 21.1689L155.969 20.392L156.599 19.6151C155.406 18.6486 153.654 18.264 151.553 18.264V19.264ZM155.969 20.392L155.354 21.1806C156.008 21.6903 156.385 22.4508 156.385 23.632H157.385H158.385C158.385 21.9652 157.818 20.5657 156.584 19.6034L155.969 20.392ZM157.385 23.632H156.385C156.385 24.7943 155.997 25.5651 155.293 26.0991L155.897 26.896L156.501 27.6929C157.781 26.7229 158.385 25.3177 158.385 23.632H157.385ZM155.897 26.896L155.295 26.0976C154.536 26.6699 153.494 27 152.081 27V28V29C153.804 29 155.306 28.5941 156.499 27.6944L155.897 26.896ZM152.081 28V27H147.305V28V29H152.081V28ZM147.305 28H148.305V15.28H147.305H146.305V28H147.305ZM147.305 15.28V16.28H150.713V15.28V14.28H147.305V15.28ZM150.713 15.28H149.713V19.264H150.713H151.713V15.28H150.713ZM150.713 19.264V20.264H151.553V19.264V18.264H150.713V19.264ZM158.657 15.28V16.28H162.065V15.28V14.28H158.657V15.28ZM162.065 15.28H161.065V28H162.065H163.065V15.28H162.065ZM162.065 28V27H158.657V28V29H162.065V28ZM158.657 28H159.657V15.28H158.657H157.657V28H158.657ZM151.745 25.696V26.696C152.608 26.696 153.44 26.4823 154.05 25.8791C154.662 25.2738 154.881 24.445 154.881 23.584H153.881H152.881C152.881 24.131 152.744 24.3582 152.644 24.4569C152.542 24.5577 152.306 24.696 151.745 24.696V25.696ZM153.881 23.584H154.881C154.881 22.73 154.667 21.8962 154.043 21.3006L153.353 22.024L152.663 22.7474C152.743 22.8238 152.881 23.03 152.881 23.584H153.881ZM153.353 22.024L154.043 21.3006C153.406 20.6921 152.468 20.52 151.529 20.52V21.52V22.52C152.318 22.52 152.596 22.6839 152.663 22.7474L153.353 22.024ZM151.529 21.52V20.52H150.713V21.52V22.52H151.529V21.52ZM150.713 21.52H149.713V25.696H150.713H151.713V21.52H150.713ZM150.713 25.696V26.696H151.745V25.696V24.696H150.713V25.696ZM176.294 28V29H177.294V28H176.294ZM173.03 28H172.03V29H173.03V28ZM173.174 20.584L172.181 20.4672L172.181 20.4672L173.174 20.584ZM173.486 18.64L174.46 18.8672L172.585 18.2058L173.486 18.64ZM168.974 28V29H169.602L169.875 28.4342L168.974 28ZM165.422 28H164.422V29H165.422V28ZM165.422 15.28V14.28H164.422V15.28H165.422ZM168.686 15.28H169.686V14.28H168.686V15.28ZM168.542 22.72L167.549 22.6075L167.548 22.6159L167.547 22.6243L168.542 22.72ZM168.254 24.64L167.284 24.3975L169.158 25.0686L168.254 24.64ZM172.694 15.28V14.28H172.062L171.791 14.8514L172.694 15.28ZM176.294 15.28H177.294V14.28H176.294V15.28ZM168.038 11.824L167.365 12.564L167.375 12.5723L168.038 11.824ZM166.838 9.28L166.656 8.29672L165.76 8.4627L165.842 9.37053L166.838 9.28ZM168.782 8.92L169.745 8.64925L169.498 7.7705L168.6 7.93672L168.782 8.92ZM169.478 10.024L168.905 10.8432L168.914 10.8497L168.923 10.8561L169.478 10.024ZM172.934 8.92L173.116 7.93672L172.244 7.77523L171.98 8.62172L172.934 8.92ZM174.878 9.28L175.874 9.37053L175.957 8.4627L175.06 8.29672L174.878 9.28ZM173.654 11.824L174.317 12.5723L174.319 12.5714L173.654 11.824ZM176.294 28V27H173.03V28V29H176.294V28ZM173.03 28H174.03V23.176H173.03H172.03V28H173.03ZM173.03 23.176H174.03C174.03 22.2989 174.076 21.4741 174.167 20.7008L173.174 20.584L172.181 20.4672C172.08 21.3259 172.03 22.2291 172.03 23.176H173.03ZM173.174 20.584L174.167 20.7008C174.261 19.901 174.36 19.2949 174.46 18.8672L173.486 18.64L172.512 18.4128C172.388 18.9451 172.279 19.635 172.181 20.4672L173.174 20.584ZM173.486 18.64L172.585 18.2058L168.073 27.5658L168.974 28L169.875 28.4342L174.387 19.0742L173.486 18.64ZM168.974 28V27H165.422V28V29H168.974V28ZM165.422 28H166.422V15.28H165.422H164.422V28H165.422ZM165.422 15.28V16.28H168.686V15.28V14.28H165.422V15.28ZM168.686 15.28H167.686V20.152H168.686H169.686V15.28H168.686ZM168.686 20.152H167.686C167.686 20.9789 167.64 21.7973 167.549 22.6075L168.542 22.72L169.536 22.8325C169.636 21.9467 169.686 21.0531 169.686 20.152H168.686ZM168.542 22.72L167.547 22.6243C167.468 23.4396 167.378 24.0216 167.284 24.3975L168.254 24.64L169.224 24.8825C169.354 24.3624 169.456 23.6644 169.538 22.8157L168.542 22.72ZM168.254 24.64L169.158 25.0686L173.598 15.7086L172.694 15.28L171.791 14.8514L167.351 24.2114L168.254 24.64ZM172.694 15.28V16.28H176.294V15.28V14.28H172.694V15.28ZM176.294 15.28H175.294V28H176.294H177.294V15.28H176.294ZM170.846 12.76V11.76C169.861 11.76 169.181 11.501 168.701 11.0757L168.038 11.824L167.375 12.5723C168.303 13.395 169.495 13.76 170.846 13.76V12.76ZM168.038 11.824L168.711 11.0841C168.214 10.6322 167.91 10.027 167.834 9.18946L166.838 9.28L165.842 9.37053C165.958 10.645 166.455 11.7358 167.366 12.5639L168.038 11.824ZM166.838 9.28L167.02 10.2633L168.964 9.90328L168.782 8.92L168.6 7.93672L166.656 8.29672L166.838 9.28ZM168.782 8.92L167.82 9.19075C168.004 9.84492 168.337 10.4459 168.905 10.8432L169.478 10.024L170.052 9.20477C169.979 9.15411 169.849 9.01907 169.745 8.64925L168.782 8.92ZM169.478 10.024L168.923 10.8561C169.48 11.227 170.153 11.36 170.846 11.36V10.36V9.36C170.387 9.36 170.148 9.26899 170.033 9.19195L169.478 10.024ZM170.846 10.36V11.36C171.53 11.36 172.192 11.2244 172.745 10.856L172.19 10.024L171.635 9.19195C171.516 9.27164 171.283 9.36 170.846 9.36V10.36ZM172.19 10.024L172.745 10.856C173.326 10.4688 173.683 9.87672 173.889 9.21827L172.934 8.92L171.98 8.62172C171.865 8.98728 171.727 9.13122 171.635 9.19195L172.19 10.024ZM172.934 8.92L172.752 9.90328L174.696 10.2633L174.878 9.28L175.06 8.29672L173.116 7.93672L172.934 8.92ZM174.878 9.28L173.882 9.18946C173.807 10.0201 173.5 10.6231 172.99 11.0766L173.654 11.824L174.319 12.5714C175.248 11.7449 175.758 10.6519 175.874 9.37053L174.878 9.28ZM173.654 11.824L172.991 11.0757C172.511 11.501 171.831 11.76 170.846 11.76V12.76V13.76C172.197 13.76 173.389 13.395 174.317 12.5723L173.654 11.824Z" fill="black" fill-opacity="0.19" mask="url(#path-44-outside-1_2012_532)"/>
</g>
<mask id="path-46-outside-2_2012_532" maskUnits="userSpaceOnUse" x="76" y="38" width="49" height="11" fill="black">
<rect fill="white" x="76" y="38" width="49" height="11"/>
<path d="M80.476 41.568C81.548 41.672 82.084 42.168 82.084 43.056C82.084 43.72 81.84 44.212 81.352 44.532C80.872 44.844 80.228 45 79.42 45H77.14V38.76C77.884 38.608 78.576 38.532 79.216 38.532C80 38.532 80.62 38.68 81.076 38.976C81.532 39.272 81.76 39.696 81.76 40.248C81.76 40.608 81.652 40.9 81.436 41.124C81.22 41.348 80.9 41.496 80.476 41.568ZM79.228 39.384C78.892 39.384 78.564 39.408 78.244 39.456V41.244H79.432C79.816 41.244 80.112 41.172 80.32 41.028C80.528 40.884 80.632 40.64 80.632 40.296C80.632 39.976 80.516 39.744 80.284 39.6C80.052 39.456 79.7 39.384 79.228 39.384ZM79.42 44.136C79.892 44.136 80.26 44.056 80.524 43.896C80.788 43.736 80.92 43.448 80.92 43.032C80.92 42.688 80.808 42.44 80.584 42.288C80.36 42.136 79.98 42.06 79.444 42.06H78.244V44.136H79.42ZM86.2426 38.532C87.1306 38.532 87.8186 38.828 88.3066 39.42C88.8026 40.012 89.0506 40.816 89.0506 41.832C89.0506 42.488 88.9386 43.068 88.7146 43.572C88.4906 44.068 88.1666 44.456 87.7426 44.736C87.3186 45.008 86.8146 45.144 86.2306 45.144C85.3426 45.144 84.6506 44.848 84.1546 44.256C83.6586 43.664 83.4106 42.86 83.4106 41.844C83.4106 41.188 83.5226 40.612 83.7466 40.116C83.9706 39.612 84.2946 39.224 84.7186 38.952C85.1426 38.672 85.6506 38.532 86.2426 38.532ZM86.2426 39.42C85.1466 39.42 84.5986 40.228 84.5986 41.844C84.5986 43.452 85.1426 44.256 86.2306 44.256C87.3186 44.256 87.8626 43.448 87.8626 41.832C87.8626 40.224 87.3226 39.42 86.2426 39.42ZM94.5704 45V39.576H91.9784V45H90.8744V38.676H95.6744V45H94.5704ZM100.857 38.532C101.665 38.532 102.257 38.82 102.633 39.396C103.009 39.972 103.197 40.784 103.197 41.832C103.197 42.824 102.981 43.624 102.549 44.232C102.117 44.84 101.505 45.144 100.713 45.144C100.009 45.144 99.4565 44.904 99.0565 44.424V47.424L97.9525 47.556V38.676H98.9005L98.9845 39.528C99.2165 39.208 99.4965 38.964 99.8245 38.796C100.153 38.62 100.497 38.532 100.857 38.532ZM100.449 44.244C101.489 44.244 102.009 43.44 102.009 41.832C102.009 40.216 101.533 39.408 100.581 39.408C100.269 39.408 99.9845 39.5 99.7285 39.684C99.4725 39.868 99.2485 40.104 99.0565 40.392V43.476C99.2165 43.724 99.4165 43.916 99.6565 44.052C99.8965 44.18 100.161 44.244 100.449 44.244ZM107.454 38.532C108.342 38.532 109.03 38.828 109.518 39.42C110.014 40.012 110.262 40.816 110.262 41.832C110.262 42.488 110.15 43.068 109.926 43.572C109.702 44.068 109.378 44.456 108.954 44.736C108.53 45.008 108.026 45.144 107.442 45.144C106.554 45.144 105.862 44.848 105.366 44.256C104.87 43.664 104.622 42.86 104.622 41.844C104.622 41.188 104.734 40.612 104.958 40.116C105.182 39.612 105.506 39.224 105.93 38.952C106.354 38.672 106.862 38.532 107.454 38.532ZM107.454 39.42C106.358 39.42 105.81 40.228 105.81 41.844C105.81 43.452 106.354 44.256 107.442 44.256C108.53 44.256 109.074 43.448 109.074 41.832C109.074 40.224 108.534 39.42 107.454 39.42ZM114.389 38.532C114.765 38.532 115.109 38.588 115.421 38.7C115.733 38.804 116.033 38.976 116.321 39.216L115.793 39.912C115.569 39.752 115.349 39.636 115.133 39.564C114.925 39.484 114.693 39.444 114.437 39.444C113.925 39.444 113.525 39.648 113.237 40.056C112.957 40.464 112.817 41.068 112.817 41.868C112.817 42.668 112.957 43.26 113.237 43.644C113.517 44.02 113.917 44.208 114.437 44.208C114.685 44.208 114.913 44.172 115.121 44.1C115.329 44.02 115.561 43.896 115.817 43.728L116.321 44.448C115.745 44.912 115.101 45.144 114.389 45.144C113.533 45.144 112.857 44.856 112.361 44.28C111.873 43.704 111.629 42.908 111.629 41.892C111.629 41.22 111.741 40.632 111.965 40.128C112.189 39.624 112.505 39.232 112.913 38.952C113.329 38.672 113.821 38.532 114.389 38.532ZM119.64 40.716C120.584 40.716 121.268 40.9 121.692 41.268C122.116 41.636 122.328 42.16 122.328 42.84C122.328 43.552 122.088 44.092 121.608 44.46C121.136 44.82 120.548 45 119.844 45H117.816V38.676H118.92V40.716H119.64ZM123.24 38.676H124.344V45H123.24V38.676ZM119.748 44.136C120.196 44.136 120.54 44.036 120.78 43.836C121.028 43.636 121.152 43.304 121.152 42.84C121.152 42.4 121.036 42.076 120.804 41.868C120.58 41.66 120.188 41.556 119.628 41.556H118.92V44.136H119.748Z"/>
</mask>
<path d="M80.476 41.568C81.548 41.672 82.084 42.168 82.084 43.056C82.084 43.72 81.84 44.212 81.352 44.532C80.872 44.844 80.228 45 79.42 45H77.14V38.76C77.884 38.608 78.576 38.532 79.216 38.532C80 38.532 80.62 38.68 81.076 38.976C81.532 39.272 81.76 39.696 81.76 40.248C81.76 40.608 81.652 40.9 81.436 41.124C81.22 41.348 80.9 41.496 80.476 41.568ZM79.228 39.384C78.892 39.384 78.564 39.408 78.244 39.456V41.244H79.432C79.816 41.244 80.112 41.172 80.32 41.028C80.528 40.884 80.632 40.64 80.632 40.296C80.632 39.976 80.516 39.744 80.284 39.6C80.052 39.456 79.7 39.384 79.228 39.384ZM79.42 44.136C79.892 44.136 80.26 44.056 80.524 43.896C80.788 43.736 80.92 43.448 80.92 43.032C80.92 42.688 80.808 42.44 80.584 42.288C80.36 42.136 79.98 42.06 79.444 42.06H78.244V44.136H79.42ZM86.2426 38.532C87.1306 38.532 87.8186 38.828 88.3066 39.42C88.8026 40.012 89.0506 40.816 89.0506 41.832C89.0506 42.488 88.9386 43.068 88.7146 43.572C88.4906 44.068 88.1666 44.456 87.7426 44.736C87.3186 45.008 86.8146 45.144 86.2306 45.144C85.3426 45.144 84.6506 44.848 84.1546 44.256C83.6586 43.664 83.4106 42.86 83.4106 41.844C83.4106 41.188 83.5226 40.612 83.7466 40.116C83.9706 39.612 84.2946 39.224 84.7186 38.952C85.1426 38.672 85.6506 38.532 86.2426 38.532ZM86.2426 39.42C85.1466 39.42 84.5986 40.228 84.5986 41.844C84.5986 43.452 85.1426 44.256 86.2306 44.256C87.3186 44.256 87.8626 43.448 87.8626 41.832C87.8626 40.224 87.3226 39.42 86.2426 39.42ZM94.5704 45V39.576H91.9784V45H90.8744V38.676H95.6744V45H94.5704ZM100.857 38.532C101.665 38.532 102.257 38.82 102.633 39.396C103.009 39.972 103.197 40.784 103.197 41.832C103.197 42.824 102.981 43.624 102.549 44.232C102.117 44.84 101.505 45.144 100.713 45.144C100.009 45.144 99.4565 44.904 99.0565 44.424V47.424L97.9525 47.556V38.676H98.9005L98.9845 39.528C99.2165 39.208 99.4965 38.964 99.8245 38.796C100.153 38.62 100.497 38.532 100.857 38.532ZM100.449 44.244C101.489 44.244 102.009 43.44 102.009 41.832C102.009 40.216 101.533 39.408 100.581 39.408C100.269 39.408 99.9845 39.5 99.7285 39.684C99.4725 39.868 99.2485 40.104 99.0565 40.392V43.476C99.2165 43.724 99.4165 43.916 99.6565 44.052C99.8965 44.18 100.161 44.244 100.449 44.244ZM107.454 38.532C108.342 38.532 109.03 38.828 109.518 39.42C110.014 40.012 110.262 40.816 110.262 41.832C110.262 42.488 110.15 43.068 109.926 43.572C109.702 44.068 109.378 44.456 108.954 44.736C108.53 45.008 108.026 45.144 107.442 45.144C106.554 45.144 105.862 44.848 105.366 44.256C104.87 43.664 104.622 42.86 104.622 41.844C104.622 41.188 104.734 40.612 104.958 40.116C105.182 39.612 105.506 39.224 105.93 38.952C106.354 38.672 106.862 38.532 107.454 38.532ZM107.454 39.42C106.358 39.42 105.81 40.228 105.81 41.844C105.81 43.452 106.354 44.256 107.442 44.256C108.53 44.256 109.074 43.448 109.074 41.832C109.074 40.224 108.534 39.42 107.454 39.42ZM114.389 38.532C114.765 38.532 115.109 38.588 115.421 38.7C115.733 38.804 116.033 38.976 116.321 39.216L115.793 39.912C115.569 39.752 115.349 39.636 115.133 39.564C114.925 39.484 114.693 39.444 114.437 39.444C113.925 39.444 113.525 39.648 113.237 40.056C112.957 40.464 112.817 41.068 112.817 41.868C112.817 42.668 112.957 43.26 113.237 43.644C113.517 44.02 113.917 44.208 114.437 44.208C114.685 44.208 114.913 44.172 115.121 44.1C115.329 44.02 115.561 43.896 115.817 43.728L116.321 44.448C115.745 44.912 115.101 45.144 114.389 45.144C113.533 45.144 112.857 44.856 112.361 44.28C111.873 43.704 111.629 42.908 111.629 41.892C111.629 41.22 111.741 40.632 111.965 40.128C112.189 39.624 112.505 39.232 112.913 38.952C113.329 38.672 113.821 38.532 114.389 38.532ZM119.64 40.716C120.584 40.716 121.268 40.9 121.692 41.268C122.116 41.636 122.328 42.16 122.328 42.84C122.328 43.552 122.088 44.092 121.608 44.46C121.136 44.82 120.548 45 119.844 45H117.816V38.676H118.92V40.716H119.64ZM123.24 38.676H124.344V45H123.24V38.676ZM119.748 44.136C120.196 44.136 120.54 44.036 120.78 43.836C121.028 43.636 121.152 43.304 121.152 42.84C121.152 42.4 121.036 42.076 120.804 41.868C120.58 41.66 120.188 41.556 119.628 41.556H118.92V44.136H119.748Z" fill="white"/>
<path d="M80.476 41.568L80.3923 41.0751L80.4277 42.0657L80.476 41.568ZM81.352 44.532L81.6245 44.9512L81.6262 44.9501L81.352 44.532ZM77.14 45H76.64V45.5H77.14V45ZM77.14 38.76L77.0399 38.2701L76.64 38.3518V38.76H77.14ZM81.076 38.976L80.8038 39.3954L80.8038 39.3954L81.076 38.976ZM81.436 41.124L81.0761 40.7769L81.0761 40.7769L81.436 41.124ZM78.244 39.456L78.1698 38.9615L77.744 39.0254V39.456H78.244ZM78.244 41.244H77.744V41.744H78.244V41.244ZM80.32 41.028L80.0354 40.6169L80.0354 40.6169L80.32 41.028ZM80.284 39.6L80.5477 39.1752L80.5477 39.1752L80.284 39.6ZM80.524 43.896L80.2648 43.4684L80.2648 43.4684L80.524 43.896ZM80.584 42.288L80.8648 41.8743L80.8648 41.8743L80.584 42.288ZM78.244 42.06V41.56H77.744V42.06H78.244ZM78.244 44.136H77.744V44.636H78.244V44.136ZM80.476 41.568L80.4277 42.0657C80.9044 42.1119 81.1847 42.2391 81.3424 42.385C81.4865 42.5183 81.584 42.7189 81.584 43.056H82.084H82.584C82.584 42.5051 82.4135 42.0137 82.0216 41.651C81.6433 41.3009 81.1196 41.1281 80.5243 41.0703L80.476 41.568ZM82.084 43.056H81.584C81.584 43.5787 81.4036 43.9003 81.0778 44.1139L81.352 44.532L81.6262 44.9501C82.2764 44.5237 82.584 43.8613 82.584 43.056H82.084ZM81.352 44.532L81.0795 44.1128C80.7075 44.3546 80.1694 44.5 79.42 44.5V45V45.5C80.2866 45.5 81.0365 45.3334 81.6245 44.9512L81.352 44.532ZM79.42 45V44.5H77.14V45V45.5H79.42V45ZM77.14 45H77.64V38.76H77.14H76.64V45H77.14ZM77.14 38.76L77.2401 39.2499C77.9571 39.1034 78.6151 39.032 79.216 39.032V38.532V38.032C78.5369 38.032 77.8109 38.1126 77.0399 38.2701L77.14 38.76ZM79.216 38.532V39.032C79.944 39.032 80.4572 39.1704 80.8038 39.3954L81.076 38.976L81.3482 38.5566C80.7828 38.1896 80.056 38.032 79.216 38.032V38.532ZM81.076 38.976L80.8038 39.3954C81.1151 39.5975 81.26 39.8622 81.26 40.248H81.76H82.26C82.26 39.5298 81.9489 38.9465 81.3482 38.5566L81.076 38.976ZM81.76 40.248H81.26C81.26 40.5004 81.1881 40.6608 81.0761 40.7769L81.436 41.124L81.7959 41.4711C82.1159 41.1392 82.26 40.7156 82.26 40.248H81.76ZM81.436 41.124L81.0761 40.7769C80.9578 40.8996 80.7504 41.0143 80.3923 41.0751L80.476 41.568L80.5597 42.0609C81.0496 41.9777 81.4822 41.7964 81.7959 41.4711L81.436 41.124ZM79.228 39.384V38.884C78.8681 38.884 78.5153 38.9097 78.1698 38.9615L78.244 39.456L78.3182 39.9505C78.6127 39.9063 78.9159 39.884 79.228 39.884V39.384ZM78.244 39.456H77.744V41.244H78.244H78.744V39.456H78.244ZM78.244 41.244V41.744H79.432V41.244V40.744H78.244V41.244ZM79.432 41.244V41.744C79.8683 41.744 80.2799 41.6639 80.6046 41.4391L80.32 41.028L80.0354 40.6169C79.9441 40.6801 79.7637 40.744 79.432 40.744V41.244ZM80.32 41.028L80.6046 41.4391C80.993 41.1702 81.132 40.7396 81.132 40.296H80.632H80.132C80.132 40.5404 80.063 40.5978 80.0354 40.6169L80.32 41.028ZM80.632 40.296H81.132C81.132 39.8379 80.954 39.4274 80.5477 39.1752L80.284 39.6L80.0203 40.0248C80.078 40.0606 80.132 40.1141 80.132 40.296H80.632ZM80.284 39.6L80.5477 39.1752C80.1978 38.958 79.7335 38.884 79.228 38.884V39.384V39.884C79.6665 39.884 79.9062 39.954 80.0203 40.0248L80.284 39.6ZM79.42 44.136V44.636C79.9388 44.636 80.4101 44.5497 80.7832 44.3236L80.524 43.896L80.2648 43.4684C80.1099 43.5623 79.8452 43.636 79.42 43.636V44.136ZM80.524 43.896L80.7832 44.3236C81.247 44.0425 81.42 43.5546 81.42 43.032H80.92H80.42C80.42 43.3414 80.329 43.4295 80.2648 43.4684L80.524 43.896ZM80.92 43.032H81.42C81.42 42.5727 81.2629 42.1444 80.8648 41.8743L80.584 42.288L80.3032 42.7017C80.3531 42.7356 80.42 42.8033 80.42 43.032H80.92ZM80.584 42.288L80.8648 41.8743C80.5094 41.6331 79.9985 41.56 79.444 41.56V42.06V42.56C79.9615 42.56 80.2106 42.6389 80.3032 42.7017L80.584 42.288ZM79.444 42.06V41.56H78.244V42.06V42.56H79.444V42.06ZM78.244 42.06H77.744V44.136H78.244H78.744V42.06H78.244ZM78.244 44.136V44.636H79.42V44.136V43.636H78.244V44.136ZM88.3066 39.42L87.9207 39.738L87.9233 39.7411L88.3066 39.42ZM88.7146 43.572L89.1703 43.7778L89.1715 43.7751L88.7146 43.572ZM87.7426 44.736L88.0126 45.1569L88.0181 45.1532L87.7426 44.736ZM84.1546 44.256L83.7713 44.5771L83.7713 44.5771L84.1546 44.256ZM83.7466 40.116L84.2023 40.3218L84.2035 40.3191L83.7466 40.116ZM84.7186 38.952L84.9886 39.3729L84.9941 39.3692L84.7186 38.952ZM86.2426 38.532V39.032C87.0075 39.032 87.5433 39.2801 87.9207 39.738L88.3066 39.42L88.6924 39.102C88.0939 38.3759 87.2536 38.032 86.2426 38.032V38.532ZM88.3066 39.42L87.9233 39.7411C88.3229 40.218 88.5506 40.8959 88.5506 41.832H89.0506H89.5506C89.5506 40.7361 89.2822 39.806 88.6898 39.0989L88.3066 39.42ZM89.0506 41.832H88.5506C88.5506 42.4311 88.4484 42.9398 88.2577 43.3689L88.7146 43.572L89.1715 43.7751C89.4287 43.1962 89.5506 42.5449 89.5506 41.832H89.0506ZM88.7146 43.572L88.2589 43.3662C88.0709 43.7825 87.8066 44.0945 87.467 44.3188L87.7426 44.736L88.0181 45.1532C88.5266 44.8175 88.9103 44.3535 89.1702 43.7778L88.7146 43.572ZM87.7426 44.736L87.4726 44.3152C87.1413 44.5277 86.7344 44.644 86.2306 44.644V45.144V45.644C86.8947 45.644 87.4958 45.4883 88.0125 45.1568L87.7426 44.736ZM86.2306 45.144V44.644C85.4657 44.644 84.924 44.3958 84.5378 43.9349L84.1546 44.256L83.7713 44.5771C84.3771 45.3002 85.2194 45.644 86.2306 45.644V45.144ZM84.1546 44.256L84.5378 43.9349C84.1382 43.458 83.9106 42.7801 83.9106 41.844H83.4106H82.9106C82.9106 42.9399 83.1789 43.87 83.7713 44.5771L84.1546 44.256ZM83.4106 41.844H83.9106C83.9106 41.2447 84.0128 40.7412 84.2022 40.3218L83.7466 40.116L83.2909 39.9102C83.0323 40.4828 82.9106 41.1313 82.9106 41.844H83.4106ZM83.7466 40.116L84.2035 40.3191C84.3917 39.8955 84.6546 39.5871 84.9885 39.3728L84.7186 38.952L84.4486 38.5312C83.9346 38.8609 83.5494 39.3285 83.2897 39.9129L83.7466 40.116ZM84.7186 38.952L84.9941 39.3692C85.3235 39.1517 85.732 39.032 86.2426 39.032V38.532V38.032C85.5691 38.032 84.9616 38.1923 84.443 38.5348L84.7186 38.952ZM86.2426 39.42V38.92C85.5526 38.92 84.9754 39.1856 84.5958 39.7453C84.2397 40.2704 84.0986 40.9951 84.0986 41.844H84.5986H85.0986C85.0986 41.0769 85.2315 40.5896 85.4234 40.3067C85.5917 40.0584 85.8366 39.92 86.2426 39.92V39.42ZM84.5986 41.844H84.0986C84.0986 42.6887 84.2386 43.4102 84.5924 43.9332C84.9699 44.491 85.5441 44.756 86.2306 44.756V44.256V43.756C85.8291 43.756 85.5873 43.619 85.4207 43.3728C85.2305 43.0918 85.0986 42.6073 85.0986 41.844H84.5986ZM86.2306 44.256V44.756C86.9181 44.756 87.4923 44.4892 87.8693 43.9292C88.2226 43.4045 88.3626 42.6804 88.3626 41.832H87.8626H87.3626C87.3626 42.5996 87.2305 43.0875 87.0398 43.3708C86.8728 43.6188 86.631 43.756 86.2306 43.756V44.256ZM87.8626 41.832H88.3626C88.3626 40.9878 88.2237 40.2669 87.8726 39.7442C87.4979 39.1863 86.9266 38.92 86.2426 38.92V39.42V39.92C86.6385 39.92 86.8772 40.0557 87.0425 40.3018C87.2315 40.5831 87.3626 41.0682 87.3626 41.832H87.8626ZM94.5704 45H94.0704V45.5H94.5704V45ZM94.5704 39.576H95.0704V39.076H94.5704V39.576ZM91.9784 39.576V39.076H91.4784V39.576H91.9784ZM91.9784 45V45.5H92.4784V45H91.9784ZM90.8744 45H90.3744V45.5H90.8744V45ZM90.8744 38.676V38.176H90.3744V38.676H90.8744ZM95.6744 38.676H96.1744V38.176H95.6744V38.676ZM95.6744 45V45.5H96.1744V45H95.6744ZM94.5704 45H95.0704V39.576H94.5704H94.0704V45H94.5704ZM94.5704 39.576V39.076H91.9784V39.576V40.076H94.5704V39.576ZM91.9784 39.576H91.4784V45H91.9784H92.4784V39.576H91.9784ZM91.9784 45V44.5H90.8744V45V45.5H91.9784V45ZM90.8744 45H91.3744V38.676H90.8744H90.3744V45H90.8744ZM90.8744 38.676V39.176H95.6744V38.676V38.176H90.8744V38.676ZM95.6744 38.676H95.1744V45H95.6744H96.1744V38.676H95.6744ZM95.6744 45V44.5H94.5704V45V45.5H95.6744V45ZM102.633 39.396L102.214 39.6693L102.214 39.6693L102.633 39.396ZM102.549 44.232L102.141 43.9424L102.141 43.9424L102.549 44.232ZM99.0565 44.424L99.4406 44.1039L98.5565 43.043V44.424H99.0565ZM99.0565 47.424L99.1159 47.9205L99.5565 47.8678V47.424H99.0565ZM97.9525 47.556H97.4525V48.1193L98.0119 48.0525L97.9525 47.556ZM97.9525 38.676V38.176H97.4525V38.676H97.9525ZM98.9005 38.676L99.3981 38.6269L99.3536 38.176H98.9005V38.676ZM98.9845 39.528L98.4869 39.5771L98.6162 40.8879L99.3893 39.8215L98.9845 39.528ZM99.8245 38.796L100.052 39.2411L100.061 39.2366L99.8245 38.796ZM99.7285 39.684L100.02 40.09L100.02 40.09L99.7285 39.684ZM99.0565 40.392L98.6405 40.1146L98.5565 40.2406V40.392H99.0565ZM99.0565 43.476H98.5565V43.6233L98.6364 43.7471L99.0565 43.476ZM99.6565 44.052L99.4099 44.4872L99.4212 44.4932L99.6565 44.052ZM100.857 38.532V39.032C101.53 39.032 101.947 39.2612 102.214 39.6693L102.633 39.396L103.051 39.1227C102.566 38.3788 101.799 38.032 100.857 38.032V38.532ZM102.633 39.396L102.214 39.6693C102.516 40.1319 102.697 40.8338 102.697 41.832H103.197H103.697C103.697 40.7342 103.501 39.8121 103.051 39.1227L102.633 39.396ZM103.197 41.832H102.697C102.697 42.754 102.496 43.4429 102.141 43.9424L102.549 44.232L102.956 44.5216C103.465 43.8051 103.697 42.894 103.697 41.832H103.197ZM102.549 44.232L102.141 43.9424C101.809 44.4091 101.354 44.644 100.713 44.644V45.144V45.644C101.655 45.644 102.424 45.2709 102.956 44.5216L102.549 44.232ZM100.713 45.144V44.644C100.136 44.644 99.7329 44.4546 99.4406 44.1039L99.0565 44.424L98.6724 44.7441C99.1801 45.3534 99.8813 45.644 100.713 45.644V45.144ZM99.0565 44.424H98.5565V47.424H99.0565H99.5565V44.424H99.0565ZM99.0565 47.424L98.9971 46.9275L97.8931 47.0595L97.9525 47.556L98.0119 48.0525L99.1159 47.9205L99.0565 47.424ZM97.9525 47.556H98.4525V38.676H97.9525H97.4525V47.556H97.9525ZM97.9525 38.676V39.176H98.9005V38.676V38.176H97.9525V38.676ZM98.9005 38.676L98.4029 38.7251L98.4869 39.5771L98.9845 39.528L99.4821 39.4789L99.3981 38.6269L98.9005 38.676ZM98.9845 39.528L99.3893 39.8215C99.5785 39.5605 99.7995 39.3706 100.052 39.241L99.8245 38.796L99.5966 38.351C99.1935 38.5574 98.8545 38.8555 98.5797 39.2345L98.9845 39.528ZM99.8245 38.796L100.061 39.2366C100.319 39.0982 100.582 39.032 100.857 39.032V38.532V38.032C100.411 38.032 99.9862 38.1418 99.5881 38.3554L99.8245 38.796ZM100.449 44.244V44.744C101.121 44.744 101.677 44.471 102.038 43.9125C102.375 43.3916 102.509 42.6739 102.509 41.832H102.009H101.509C101.509 42.5981 101.382 43.0864 101.199 43.3695C101.04 43.615 100.816 43.744 100.449 43.744V44.244ZM102.009 41.832H102.509C102.509 40.9913 102.388 40.2784 102.082 39.7602C101.753 39.2008 101.23 38.908 100.581 38.908V39.408V39.908C100.883 39.908 101.074 40.0192 101.221 40.2678C101.391 40.5576 101.509 41.0567 101.509 41.832H102.009ZM100.581 39.408V38.908C100.163 38.908 99.7768 39.0336 99.4367 39.278L99.7285 39.684L100.02 40.09C100.192 39.9664 100.374 39.908 100.581 39.908V39.408ZM99.7285 39.684L99.4367 39.278C99.1273 39.5003 98.8625 39.7815 98.6405 40.1146L99.0565 40.392L99.4725 40.6694C99.6345 40.4265 99.8177 40.2357 100.02 40.09L99.7285 39.684ZM99.0565 40.392H98.5565V43.476H99.0565H99.5565V40.392H99.0565ZM99.0565 43.476L98.6364 43.7471C98.837 44.0581 99.0948 44.3084 99.41 44.487L99.6565 44.052L99.903 43.617C99.7382 43.5236 99.596 43.3899 99.4766 43.2049L99.0565 43.476ZM99.6565 44.052L99.4212 44.4932C99.7379 44.6621 100.083 44.744 100.449 44.744V44.244V43.744C100.238 43.744 100.055 43.6979 99.8918 43.6108L99.6565 44.052ZM109.518 39.42L109.132 39.738L109.134 39.7411L109.518 39.42ZM109.926 43.572L110.381 43.7778L110.382 43.7751L109.926 43.572ZM108.954 44.736L109.224 45.1569L109.229 45.1532L108.954 44.736ZM105.366 44.256L104.982 44.5771L104.982 44.5771L105.366 44.256ZM104.958 40.116L105.413 40.3218L105.414 40.3191L104.958 40.116ZM105.93 38.952L106.2 39.3729L106.205 39.3692L105.93 38.952ZM107.454 38.532V39.032C108.218 39.032 108.754 39.2801 109.132 39.738L109.518 39.42L109.903 39.102C109.305 38.3759 108.465 38.032 107.454 38.032V38.532ZM109.518 39.42L109.134 39.7411C109.534 40.218 109.762 40.8959 109.762 41.832H110.262H110.762C110.762 40.7361 110.493 39.806 109.901 39.0989L109.518 39.42ZM110.262 41.832H109.762C109.762 42.4311 109.659 42.9398 109.469 43.3689L109.926 43.572L110.382 43.7751C110.64 43.1962 110.762 42.5449 110.762 41.832H110.262ZM109.926 43.572L109.47 43.3662C109.282 43.7825 109.018 44.0945 108.678 44.3188L108.954 44.736L109.229 45.1532C109.737 44.8175 110.121 44.3535 110.381 43.7778L109.926 43.572ZM108.954 44.736L108.684 44.3152C108.352 44.5277 107.945 44.644 107.442 44.644V45.144V45.644C108.106 45.644 108.707 45.4883 109.223 45.1568L108.954 44.736ZM107.442 45.144V44.644C106.677 44.644 106.135 44.3958 105.749 43.9349L105.366 44.256L104.982 44.5771C105.588 45.3002 106.43 45.644 107.442 45.644V45.144ZM105.366 44.256L105.749 43.9349C105.349 43.458 105.122 42.7801 105.122 41.844H104.622H104.122C104.122 42.9399 104.39 43.87 104.982 44.5771L105.366 44.256ZM104.622 41.844H105.122C105.122 41.2447 105.224 40.7412 105.413 40.3218L104.958 40.116L104.502 39.9102C104.243 40.4828 104.122 41.1313 104.122 41.844H104.622ZM104.958 40.116L105.414 40.3191C105.603 39.8955 105.865 39.5871 106.199 39.3728L105.93 38.952L105.66 38.5312C105.146 38.8609 104.76 39.3285 104.501 39.9129L104.958 40.116ZM105.93 38.952L106.205 39.3692C106.534 39.1517 106.943 39.032 107.454 39.032V38.532V38.032C106.78 38.032 106.173 38.1923 105.654 38.5348L105.93 38.952ZM107.454 39.42V38.92C106.763 38.92 106.186 39.1856 105.807 39.7453C105.451 40.2704 105.31 40.9951 105.31 41.844H105.81H106.31C106.31 41.0769 106.442 40.5896 106.634 40.3067C106.803 40.0584 107.048 39.92 107.454 39.92V39.42ZM105.81 41.844H105.31C105.31 42.6887 105.45 43.4102 105.803 43.9332C106.181 44.491 106.755 44.756 107.442 44.756V44.256V43.756C107.04 43.756 106.798 43.619 106.632 43.3728C106.441 43.0918 106.31 42.6073 106.31 41.844H105.81ZM107.442 44.256V44.756C108.129 44.756 108.703 44.4892 109.08 43.9292C109.434 43.4045 109.574 42.6804 109.574 41.832H109.074H108.574C108.574 42.5996 108.441 43.0875 108.251 43.3708C108.084 43.6188 107.842 43.756 107.442 43.756V44.256ZM109.074 41.832H109.574C109.574 40.9878 109.435 40.2669 109.084 39.7442C108.709 39.1863 108.138 38.92 107.454 38.92V39.42V39.92C107.849 39.92 108.088 40.0557 108.253 40.3018C108.442 40.5831 108.574 41.0682 108.574 41.832H109.074ZM115.421 38.7L115.252 39.1707L115.263 39.1743L115.421 38.7ZM116.321 39.216L116.72 39.5182L117.008 39.1377L116.641 38.8319L116.321 39.216ZM115.793 39.912L115.503 40.3189L115.898 40.6012L116.192 40.2142L115.793 39.912ZM115.133 39.564L114.954 40.0307L114.964 40.0347L114.975 40.0383L115.133 39.564ZM113.237 40.056L112.829 39.7676L112.825 39.7731L113.237 40.056ZM113.237 43.644L112.833 43.9386L112.836 43.9426L113.237 43.644ZM115.121 44.1L115.285 44.5725L115.293 44.5697L115.301 44.5667L115.121 44.1ZM115.817 43.728L116.227 43.4413L115.949 43.0437L115.543 43.31L115.817 43.728ZM116.321 44.448L116.635 44.8374L116.999 44.5442L116.731 44.1613L116.321 44.448ZM112.361 44.28L111.98 44.6032L111.982 44.6063L112.361 44.28ZM111.965 40.128L111.508 39.9249L111.508 39.9249L111.965 40.128ZM112.913 38.952L112.634 38.5372L112.63 38.5397L112.913 38.952ZM114.389 38.532V39.032C114.715 39.032 115.001 39.0805 115.252 39.1706L115.421 38.7L115.59 38.2294C115.217 38.0955 114.815 38.032 114.389 38.032V38.532ZM115.421 38.7L115.263 39.1743C115.508 39.2561 115.754 39.3945 116.001 39.6001L116.321 39.216L116.641 38.8319C116.312 38.5575 115.958 38.3519 115.579 38.2257L115.421 38.7ZM116.321 39.216L115.923 38.9138L115.395 39.6098L115.793 39.912L116.192 40.2142L116.72 39.5182L116.321 39.216ZM115.793 39.912L116.084 39.5051C115.828 39.322 115.563 39.1803 115.291 39.0897L115.133 39.564L114.975 40.0383C115.135 40.0917 115.311 40.182 115.503 40.3189L115.793 39.912ZM115.133 39.564L115.313 39.0973C115.04 38.9923 114.746 38.944 114.437 38.944V39.444V39.944C114.641 39.944 114.811 39.9757 114.954 40.0307L115.133 39.564ZM114.437 39.444V38.944C113.768 38.944 113.213 39.223 112.829 39.7677L113.237 40.056L113.646 40.3443C113.837 40.073 114.083 39.944 114.437 39.944V39.444ZM113.237 40.056L112.825 39.7731C112.463 40.3014 112.317 41.0239 112.317 41.868H112.817H113.317C113.317 41.1121 113.452 40.6266 113.65 40.3389L113.237 40.056ZM112.817 41.868H112.317C112.317 42.7085 112.461 43.4281 112.833 43.9386L113.237 43.644L113.641 43.3494C113.454 43.0919 113.317 42.6275 113.317 41.868H112.817ZM113.237 43.644L112.836 43.9426C113.222 44.4605 113.779 44.708 114.437 44.708V44.208V43.708C114.055 43.708 113.813 43.5795 113.638 43.3454L113.237 43.644ZM114.437 44.208V44.708C114.734 44.708 115.018 44.6649 115.285 44.5725L115.121 44.1L114.958 43.6275C114.809 43.6791 114.637 43.708 114.437 43.708V44.208ZM115.121 44.1L115.301 44.5667C115.552 44.4701 115.816 44.3269 116.092 44.146L115.817 43.728L115.543 43.31C115.307 43.4651 115.107 43.5699 114.942 43.6333L115.121 44.1ZM115.817 43.728L115.408 44.0147L115.912 44.7347L116.321 44.448L116.731 44.1613L116.227 43.4413L115.817 43.728ZM116.321 44.448L116.008 44.0586C115.517 44.454 114.982 44.644 114.389 44.644V45.144V45.644C115.22 45.644 115.974 45.37 116.635 44.8374L116.321 44.448ZM114.389 45.144V44.644C113.658 44.644 113.129 44.4048 112.74 43.9537L112.361 44.28L111.982 44.6063C112.586 45.3072 113.408 45.644 114.389 45.644V45.144ZM112.361 44.28L112.743 43.9568C112.354 43.4982 112.129 42.8308 112.129 41.892H111.629H111.129C111.129 42.9852 111.392 43.9098 111.98 44.6032L112.361 44.28ZM111.629 41.892H112.129C112.129 41.275 112.232 40.7588 112.422 40.3311L111.965 40.128L111.508 39.9249C111.25 40.5052 111.129 41.165 111.129 41.892H111.629ZM111.965 40.128L112.422 40.3311C112.613 39.9016 112.873 39.5861 113.196 39.3643L112.913 38.952L112.63 38.5397C112.138 38.8779 111.766 39.3464 111.508 39.9249L111.965 40.128ZM112.913 38.952L113.193 39.3668C113.515 39.1495 113.907 39.032 114.389 39.032V38.532V38.032C113.735 38.032 113.143 38.1945 112.634 38.5372L112.913 38.952ZM121.608 44.46L121.911 44.8576L121.912 44.8568L121.608 44.46ZM117.816 45H117.316V45.5H117.816V45ZM117.816 38.676V38.176H117.316V38.676H117.816ZM118.92 38.676H119.42V38.176H118.92V38.676ZM118.92 40.716H118.42V41.216H118.92V40.716ZM123.24 38.676V38.176H122.74V38.676H123.24ZM124.344 38.676H124.844V38.176H124.344V38.676ZM124.344 45V45.5H124.844V45H124.344ZM123.24 45H122.74V45.5H123.24V45ZM120.78 43.836L120.466 43.4467L120.46 43.4519L120.78 43.836ZM120.804 41.868L120.464 42.2345L120.47 42.2403L120.804 41.868ZM118.92 41.556V41.056H118.42V41.556H118.92ZM118.92 44.136H118.42V44.636H118.92V44.136ZM119.64 40.716V41.216C120.539 41.216 121.075 41.395 121.364 41.6456L121.692 41.268L122.02 40.8904C121.46 40.405 120.628 40.216 119.64 40.216V40.716ZM121.692 41.268L121.364 41.6456C121.656 41.8987 121.828 42.2715 121.828 42.84H122.328H122.828C122.828 42.0485 122.576 41.3733 122.02 40.8904L121.692 41.268ZM122.328 42.84H121.828C121.828 43.4275 121.637 43.8072 121.304 44.0632L121.608 44.46L121.912 44.8568C122.538 44.3768 122.828 43.6765 122.828 42.84H122.328ZM121.608 44.46L121.305 44.0624C120.935 44.3443 120.459 44.5 119.844 44.5V45V45.5C120.636 45.5 121.336 45.2957 121.911 44.8576L121.608 44.46ZM119.844 45V44.5H117.816V45V45.5H119.844V45ZM117.816 45H118.316V38.676H117.816H117.316V45H117.816ZM117.816 38.676V39.176H118.92V38.676V38.176H117.816V38.676ZM118.92 38.676H118.42V40.716H118.92H119.42V38.676H118.92ZM118.92 40.716V41.216H119.64V40.716V40.216H118.92V40.716ZM123.24 38.676V39.176H124.344V38.676V38.176H123.24V38.676ZM124.344 38.676H123.844V45H124.344H124.844V38.676H124.344ZM124.344 45V44.5H123.24V45V45.5H124.344V45ZM123.24 45H123.74V38.676H123.24H122.74V45H123.24ZM119.748 44.136V44.636C120.263 44.636 120.738 44.5216 121.1 44.2201L120.78 43.836L120.46 43.4519C120.342 43.5504 120.129 43.636 119.748 43.636V44.136ZM120.78 43.836L121.094 44.2252C121.506 43.893 121.652 43.3837 121.652 42.84H121.152H120.652C120.652 43.2243 120.55 43.379 120.466 43.4468L120.78 43.836ZM121.152 42.84H121.652C121.652 42.3182 121.513 41.8325 121.138 41.4957L120.804 41.868L120.47 42.2403C120.558 42.3195 120.652 42.4818 120.652 42.84H121.152ZM120.804 41.868L121.144 41.5016C120.776 41.1601 120.22 41.056 119.628 41.056V41.556V42.056C120.156 42.056 120.383 42.1599 120.464 42.2344L120.804 41.868ZM119.628 41.556V41.056H118.92V41.556V42.056H119.628V41.556ZM118.92 41.556H118.42V44.136H118.92H119.42V41.556H118.92ZM118.92 44.136V44.636H119.748V44.136V43.636H118.92V44.136Z" fill="#A29100" mask="url(#path-46-outside-2_2012_532)"/>
<defs>
<filter id="filter0_i_2012_532" x="0" y="0" width="200" height="64" filterUnits="userSpaceOnUse" color-interpolation-filters="sRGB">
<feFlood flood-opacity="0" result="BackgroundImageFix"/>
<feBlend mode="normal" in="SourceGraphic" in2="BackgroundImageFix" result="shape"/>
<feColorMatrix in="SourceAlpha" type="matrix" values="0 0 0 0 0 0 0 0 0 0 0 0 0 0 0 0 0 0 127 0" result="hardAlpha"/>
<feMorphology radius="0.5" operator="erode" in="SourceAlpha" result="effect1_innerShadow_2012_532"/>
<feOffset dy="4"/>
<feGaussianBlur stdDeviation="2"/>
<feComposite in2="hardAlpha" operator="arithmetic" k2="-1" k3="1"/>
<feColorMatrix type="matrix" values="0 0 0 0 0 0 0 0 0 0 0 0 0 0 0 0 0 0 0.15 0"/>
<feBlend mode="normal" in2="shape" result="effect1_innerShadow_2012_532"/>
</filter>
<filter id="filter1_d_2012_532" x="19.752" y="7.77051" width="161.542" height="34.6285" filterUnits="userSpaceOnUse" color-interpolation-filters="sRGB">
<feFlood flood-opacity="0" result="BackgroundImageFix"/>
<feColorMatrix in="SourceAlpha" type="matrix" values="0 0 0 0 0 0 0 0 0 0 0 0 0 0 0 0 0 0 127 0" result="hardAlpha"/>
<feOffset dy="4"/>
<feGaussianBlur stdDeviation="2"/>
<feComposite in2="hardAlpha" operator="out"/>
<feColorMatrix type="matrix" values="0 0 0 0 0 0 0 0 0 0 0 0 0 0 0 0 0 0 0.25 0"/>
<feBlend mode="normal" in2="BackgroundImageFix" result="effect1_dropShadow_2012_532"/>
<feBlend mode="normal" in="SourceGraphic" in2="effect1_dropShadow_2012_532" result="shape"/>
</filter>
<linearGradient id="paint0_linear_2012_532" x1="4" y1="2" x2="200" y2="60" gradientUnits="userSpaceOnUse">
<stop stop-color="#FFF497"/>
<stop offset="0.478895" stop-color="#FFEC45"/>
<stop offset="1" stop-color="#FFFCE0"/>
</linearGradient>
</defs>
</svg>
