<svg width="223.001282" height="31.878357" viewBox="0 0 223.001 31.8784" fill="none" xmlns="http://www.w3.org/2000/svg" xmlns:xlink="http://www.w3.org/1999/xlink">
	<desc>
			Created with Pixso.
	</desc>
	<defs/>
	<rect id="Прямоугольник 22" y="1.878357" width="223.000000" height="10.000000" fill="#5DADE2" fill-opacity="0.500000"/>
	<rect id="Прямоугольник 23" y="21.878357" width="223.000000" height="10.000000" fill="#5DADE2" fill-opacity="0.500000"/>
	<path id="Форма 1" d="M219.46 3.29L213.98 1.97C213.44 1.84 213.12 1.31 213.25 0.76C213.38 0.22 213.91 -0.11 214.45 0.02L222.23 1.9C222.77 2.03 223.1 2.56 222.97 3.11L221.09 10.88C220.96 11.43 220.43 11.75 219.88 11.62C219.34 11.49 219.01 10.96 219.15 10.42L220.45 5.03Q220.42 5.04 220.41 5.06L219.32 3.38C219.36 3.35 219.41 3.32 219.46 3.29ZM215.11 6.23C213.71 7.21 212.66 7.93 211.95 8.39L213.04 10.07Q214.13 9.36 216.26 7.87C216.51 7.69 216.71 7.56 216.84 7.47L215.7 5.83C215.56 5.92 215.37 6.06 215.11 6.23ZM163.78 6.4C163.1 6.55 162.42 6.73 161.74 6.94L162.32 8.85C162.96 8.66 163.59 8.49 164.22 8.35C164.98 8.18 165.73 8.05 166.46 7.98L166.26 5.99C165.44 6.07 164.61 6.21 163.78 6.4ZM175.54 7.39C174 6.75 172.48 6.32 170.97 6.09L170.66 8.07C172.02 8.27 173.38 8.66 174.77 9.24L175.54 7.39ZM65.5 7.87C64.82 7.87 64.14 7.89 63.45 7.93L63.55 9.93C64.21 9.89 64.85 9.87 65.5 9.87Q66.5 9.87 67.62 9.92L67.7 7.92C66.93 7.89 66.19 7.87 65.5 7.87ZM76.95 8.81C75.34 8.59 73.8 8.4 72.35 8.26L72.15 10.25C73.58 10.39 75.09 10.57 76.67 10.79L76.95 8.81ZM59.35 8.35C58.04 8.55 56.7 8.81 55.31 9.13L55.76 11.08Q57.77 10.62 59.64 10.33L59.35 8.35ZM157.85 8.38C156.69 8.88 155.46 9.48 154.15 10.18L155.1 11.95Q156.98 10.94 158.65 10.21L157.85 8.38ZM85.9 10.3C84.33 10 82.79 9.72 81.29 9.47L80.96 11.45C82.45 11.69 83.96 11.97 85.52 12.27L85.9 10.3ZM182.36 11.21C181.2 10.46 180.32 9.91 179.71 9.55L178.68 11.26C179.27 11.61 180.14 12.15 181.28 12.89Q182.1 13.41 182.51 13.67L183.58 11.98C183.31 11.81 182.9 11.55 182.36 11.21ZM51.4 10.16Q49.51 10.72 47.4 11.43L48.05 13.33C49.43 12.86 50.73 12.44 51.96 12.08L51.4 10.16ZM208.26 10.57C206.99 11.25 205.61 11.9 204.12 12.53L204.9 14.37C206.44 13.72 207.88 13.04 209.2 12.34L208.26 10.57ZM94.96 12.25C93.49 11.9 92.02 11.57 90.57 11.26L90.14 13.21C91.59 13.52 93.04 13.85 94.5 14.2L94.96 12.25ZM149.25 13L147.12 14.29L148.15 16L150.28 14.72L151.62 13.92L150.59 12.2L149.25 13ZM43.7 12.75Q41.98 13.39 39.88 14.21L40.6 16.07Q42.69 15.26 44.4 14.63L43.7 12.75ZM103.99 14.57Q101.72 13.95 99.45 13.36L98.95 15.3Q101.21 15.88 103.45 16.5L103.99 14.57ZM197.68 14.92C196.94 15.17 196.22 15.35 195.51 15.48L195.84 17.45C196.65 17.31 197.48 17.1 198.31 16.82C199.11 16.56 199.88 16.29 200.61 16.03L199.94 14.15C199.22 14.4 198.46 14.66 197.68 14.92ZM191.4 15.48C190.14 15.27 188.82 14.83 187.43 14.17L186.57 15.98Q188.9 17.09 191.06 17.46L191.4 15.48ZM36.09 15.7L32.42 17.16L33.16 19.02L36.83 17.56L36.09 15.7ZM112.82 17.22C111.37 16.75 109.9 16.3 108.41 15.85L107.84 17.77C109.32 18.21 110.77 18.66 112.21 19.12L112.82 17.22ZM143.66 16.31Q141.76 17.37 140.14 18.14L140.99 19.94C142.12 19.41 143.33 18.78 144.64 18.05L143.66 16.31ZM26.63 19.44L24.26 20.36L24.99 22.23L27.36 21.31L29.33 20.54L28.61 18.67L26.63 19.44ZM119.33 19.43L117.19 18.68L116.52 20.56L118.66 21.32C119.37 21.57 120.07 21.8 120.77 22L121.32 20.07C120.66 19.89 120 19.67 119.33 19.43ZM136.52 19.63C135.24 20.07 133.99 20.41 132.76 20.65L133.14 22.62Q135.12 22.23 137.17 21.52L136.52 19.63ZM128.96 21.08Q127.03 21.13 125.08 20.87L124.81 22.85C126.22 23.04 127.62 23.12 129.02 23.07L128.96 21.08ZM19.75 22.12L15.51 23.79L16.24 25.65L20.49 23.98L19.75 22.12ZM10.83 25.64L6.66 27.31L7.4 29.16L11.57 27.5L10.83 25.64ZM2.28 29.07L0.12 29.95L0.87 31.8L3.03 30.92L2.28 29.07Z" fill="#1A5276" fill-opacity="1.000000" fill-rule="evenodd"/>
</svg>
