<svg width="110.000000" height="30.000000" viewBox="0 0 110 30" fill="none" xmlns="http://www.w3.org/2000/svg" xmlns:xlink="http://www.w3.org/1999/xlink">
	<desc>
			Created with Pixso.
	</desc>
	<defs/>
	<path id="&lt;th/nkly&gt;" d="M43.74 3.03L42.55 2.72L36.98 24.08L38.18 24.4L43.74 3.03ZM30.38 9.82Q29.53 9.18 28.19 9.18Q27.4 9.18 26.69 9.42Q25.18 9.93 24.04 11.53L24.04 4.16L22.65 4.33L22.65 22L24.04 22L24.04 12.9Q24.88 11.63 25.8 10.97Q26.13 10.73 26.5 10.58Q27.16 10.31 27.93 10.31Q28.88 10.31 29.46 10.77Q30.31 11.47 30.31 13.21L30.31 22L31.7 22L31.7 13.02Q31.7 11.27 30.83 10.26Q30.81 10.23 30.78 10.2Q30.6 9.99 30.38 9.82ZM63.84 22L63.84 4.16L62.44 4.33L62.44 22L63.84 22ZM74.83 21.84Q75.38 22.26 76.25 22.26Q76.73 22.26 77.17 22.13Q77.43 22.05 77.68 21.92L77.3 20.89Q76.94 21.06 76.43 21.06Q76.03 21.06 75.78 20.86Q75.43 20.56 75.43 19.83L75.43 4.16L74.04 4.33L74.04 19.89Q74.04 21.06 74.62 21.66L74.62 21.66Q74.72 21.76 74.83 21.84ZM18.94 22.06Q19.59 21.86 20.18 21.47L19.63 20.51Q18.67 21.06 17.71 21.06Q16.9 21.06 16.45 20.66Q16.37 20.59 16.31 20.52Q15.86 19.98 15.86 18.88L15.86 10.57L18.93 10.57L19.1 9.44L15.86 9.44L15.86 6.27L14.47 6.44L14.47 9.44L12.36 9.44L12.36 10.57L14.47 10.57L14.47 18.95Q14.47 20.53 15.25 21.38Q15.27 21.39 15.28 21.41Q15.44 21.58 15.63 21.71Q16.38 22.26 17.54 22.26Q18.27 22.26 18.94 22.06ZM56.23 9.87Q55.38 9.18 53.97 9.18Q53.01 9.18 52.19 9.52Q51.88 9.65 51.6 9.82Q50.54 10.45 49.77 11.58L49.63 9.44L48.43 9.44L48.43 22L49.82 22L49.82 12.9Q50.66 11.63 51.58 10.97Q51.91 10.73 52.27 10.58Q52.93 10.31 53.71 10.31Q54.68 10.31 55.26 10.79Q55.38 10.88 55.48 11Q56.08 11.7 56.08 13.21L56.08 22L57.47 22L57.47 13.02Q57.47 11.2 56.57 10.19Q56.41 10.01 56.23 9.87ZM10.39 10.48L9.89 9.3L1.53 13.35L1.53 14.65L9.89 18.75L10.39 17.6L2.75 14L10.39 10.48ZM99.81 13.35L91.46 9.3L90.95 10.48L98.57 14L90.95 17.6L91.46 18.75L99.81 14.65L99.81 13.35ZM65.59 15.06L70.87 9.44L69.26 9.44L63.98 15.13L69.74 22L71.42 22L65.59 15.06ZM83.63 24.44Q84.23 23.51 84.74 22.04L89.03 9.44L87.57 9.44L83.85 20.96L80.06 9.44L78.54 9.44L82.92 22L83.4 22Q82.96 23.22 82.54 23.9Q82.44 24.07 82.31 24.23Q81.95 24.7 81.42 25.04Q80.71 25.5 79.46 25.81L79.61 26.89Q81.12 26.6 82.07 25.99Q82.67 25.61 83.13 25.11Q83.4 24.8 83.63 24.44Z" fill="#FFFFFF" fill-opacity="1.000000" fill-rule="evenodd"/>
</svg>
