<svg width="120.000000" height="30.000000" viewBox="0 0 120 30" fill="none" xmlns="http://www.w3.org/2000/svg" xmlns:xlink="http://www.w3.org/1999/xlink">
	<desc>
			Created with Pixso.
	</desc>
	<defs/>
	<path id="&lt;/&gt;" d="M21.96 3.06L20.08 2.63L14.51 24.03L16.41 24.49L21.96 3.06ZM10.79 10.59L10 8.77L1.2 12.88L1.2 15.13L10 19.24L10.79 17.46L2.95 14L10.79 10.59ZM35.27 12.88L26.47 8.77L25.68 10.59L33.52 14L25.68 17.46L26.47 19.24L35.27 15.13L35.27 12.88Z" fill="#FFFFFF" fill-opacity="1.000000" fill-rule="evenodd"/>
	<path id="THINKLY" d="M53.58 10.28L53.85 8.18L43.6 8.18L43.6 10.28L47.32 10.28L47.32 22L49.98 22L49.98 10.28L53.58 10.28ZM63.14 15.81L63.14 22L65.8 22L65.8 8.18L63.14 8.18L63.14 13.71L58.21 13.71L58.21 8.18L55.58 8.18L55.58 22L58.21 22L58.21 15.81L63.14 15.81ZM71.65 22L71.65 8.18L69.02 8.18L69.02 22L71.65 22ZM81.67 22L85.1 22L85.1 8.18L82.7 8.18L82.7 14.66Q82.7 15.96 82.81 17.27Q82.93 18.58 83.06 19.37L78.24 8.18L74.9 8.18L74.9 22L77.29 22L77.29 16.36Q77.29 14.7 77.2 13.49Q77.11 12.29 76.94 10.81L81.67 22ZM90.97 22L90.97 8.18L88.34 8.18L88.34 22L90.97 22ZM93.96 14.44L98.74 8.18L95.88 8.18L91.1 14.62L95.97 22L99.12 22L93.96 14.44ZM103.23 19.84L103.23 8.18L100.6 8.18L100.6 22L108.48 22L108.78 19.84L103.23 19.84ZM114.38 16.76L118.82 8.18L116.02 8.18L113.1 14.59L110.18 8.18L107.26 8.18L111.7 16.78L111.7 22L114.38 22L114.38 16.76Z" fill="#FFFFFF" fill-opacity="1.000000" fill-rule="evenodd"/>
</svg>
